# Blender 4.3.2
# www.blender.org
o model
v -0.093254 0.917306 0.629609
v -0.331154 0.542441 0.035473
v -0.135484 0.338915 0.589967
v -0.286627 0.572695 -0.156623
v 0.204827 1.275323 0.140079
v 0.268584 1.277961 0.185660
v -0.211351 0.364913 -0.255294
v 0.254478 1.254790 -0.049610
v 0.291528 1.139586 0.193053
v 0.134966 0.653698 0.821824
v 0.266438 1.611884 -0.170011
v 0.244032 0.998074 0.391999
v -0.004711 0.027749 0.487171
v 0.385603 0.319851 0.204649
v 0.288681 0.321943 0.085846
v 0.166610 1.672624 -0.676101
v 0.331017 1.208309 -0.534966
v 0.321003 1.455022 -0.695120
v 0.297651 1.298893 -0.635382
v -0.439553 1.025175 0.436644
v -0.442557 1.105070 0.444821
v 0.211256 1.403123 -0.817091
v 0.252870 1.130381 -0.593015
v 0.399242 1.492295 -0.609892
v 0.293643 1.463951 -0.708548
v 0.164243 1.380385 -0.866999
v 0.161053 1.307092 -0.828220
v 0.139576 1.472301 -0.826721
v 0.097673 1.638481 -0.754369
v 0.116748 1.558381 -0.790259
v 0.227897 1.306915 -0.738080
v 0.270454 0.960922 -0.467423
v 0.327140 1.560589 -0.621620
v 0.119128 1.507773 -0.807957
v 0.153318 1.215132 -0.779737
v 0.050690 1.394166 -0.842025
v 0.372449 0.940453 -0.317585
v 0.080560 1.691034 -0.732659
v 0.003141 1.584439 -0.760960
v 0.171979 1.035607 -0.643728
v 0.276502 1.672692 -0.589028
v 0.305383 0.626115 -0.220753
v 0.329735 0.795321 -0.289341
v 0.292225 0.504517 -0.167365
v 0.315869 0.411228 -0.078727
v 0.361237 1.098755 -0.428545
v 0.178287 0.508358 -0.317690
v 0.248839 0.374561 -0.151002
v 0.433588 1.413184 -0.517721
v 0.148597 1.133971 -0.734661
v 0.081611 1.652082 -0.745625
v 0.084245 1.303554 -0.806165
v 0.384090 1.570653 -0.568960
v 0.140110 0.981795 -0.651861
v 0.315658 0.377099 -0.055188
v 0.050092 1.803865 -0.680895
v 0.243708 0.809915 -0.412690
v 0.305058 1.644977 -0.581641
v 0.446094 1.513543 -0.559358
v 0.194033 1.751236 -0.601440
v -0.360552 1.105664 0.503113
v 0.211508 0.679510 -0.376222
v 0.298902 0.290965 -0.011388
v 0.136653 1.068901 -0.701132
v 0.279966 0.299456 0.036243
v 0.388786 1.576320 -0.434689
v 0.261048 0.460650 0.062378
v -0.436095 0.890596 0.426182
v 0.147136 0.786862 -0.525728
v 0.310385 0.221913 -0.005380
v -0.393088 1.163155 0.443115
v -0.006972 1.300266 -0.774668
v -0.405154 1.131373 0.164274
v 0.424366 1.347260 -0.479191
v 0.395847 0.249382 0.094717
v 0.386178 0.178229 0.194334
v 0.306594 0.142542 0.677468
v 0.382451 0.153099 0.375492
v 0.393897 0.143764 0.542984
v 0.370539 0.160563 0.604015
v 0.406746 0.171730 0.552743
v 0.393123 0.165000 0.383142
v 0.314511 0.175604 0.705286
v 0.283654 0.111355 0.315971
v 0.346171 0.216100 0.650369
v 0.375795 0.166774 0.213785
v 0.309771 0.097308 0.515382
v 0.389551 0.293344 0.394784
v 0.414822 1.269320 -0.457218
v -0.436368 0.745018 0.411000
v -0.440032 0.863238 0.403093
v -0.393575 1.145471 0.068166
v 0.050433 1.876563 -0.628340
v 0.276121 1.678358 -0.469069
v -0.343776 1.205853 0.138482
v 0.318012 0.263630 -0.013723
v 0.397123 0.198930 0.295669
v 0.392733 0.281440 0.553596
v 0.249180 0.348902 0.124974
v 0.331359 0.551880 -0.140151
v 0.148492 1.792120 -0.603420
v -0.156354 1.422209 -0.793332
v -0.094496 1.415290 -0.806023
v 0.395651 0.242035 0.291990
v 0.285688 0.617905 -0.030121
v 0.391971 1.049967 -0.355327
v -0.038117 1.734926 -0.698872
v 0.332206 0.562133 -0.130620
v 0.221349 0.222673 -0.107193
v 0.328280 0.252144 0.006888
v 0.393253 0.212193 0.051334
v -0.389966 1.034371 0.061208
v 0.300595 0.355758 0.698684
v 0.081026 1.851440 -0.617373
v 0.011260 1.900098 -0.635232
v -0.106650 1.660836 -0.708358
v 0.215737 0.111012 0.703134
v 0.246632 0.191274 0.832694
v 0.404291 1.167255 -0.406490
v 0.406662 1.217567 -0.417667
v -0.055106 1.768273 -0.676518
v -0.007981 1.168380 -0.707767
v -0.163305 1.539615 -0.746236
v 0.132267 0.308084 -0.256551
v 0.379721 0.187059 0.050422
v 0.230464 0.432342 0.163855
v 0.113753 0.604834 -0.457196
v -0.372581 1.155310 0.059905
v -0.359049 1.195631 0.363959
v 0.234325 0.378715 0.168620
v 0.130119 0.878717 -0.600416
v 0.316880 0.208987 0.009806
v 0.189613 0.072297 0.609933
v 0.244011 0.147978 0.792216
v 0.350799 0.705748 -0.204105
v 0.236596 0.059780 0.492365
v -0.387084 0.976521 0.054182
v 0.079931 1.859179 -0.531506
v -0.232831 0.863029 0.554670
v 0.080561 0.946459 -0.622906
v 0.204734 0.197883 -0.100344
v 0.149590 0.039789 0.345757
v 0.376581 0.938963 -0.299491
v 0.152229 1.800674 -0.404888
v -0.109103 1.724672 -0.638648
v -0.310105 1.252198 0.444558
v -0.242669 1.193466 0.527328
v -0.179652 1.657708 -0.604528
v 0.363354 0.816056 -0.245438
v 0.311759 0.191362 0.046045
v 0.222982 0.544682 0.152458
v -0.010264 1.870925 -0.535223
v 0.328066 1.529572 -0.274528
v 0.170694 0.201493 -0.151754
v 0.292662 0.149555 0.044745
v 0.214469 0.107466 0.151320
v 0.177103 0.155889 0.803708
v -0.306296 1.256010 0.429252
v 0.118520 0.790479 -0.554511
v 0.334950 1.632622 -0.323874
v 0.075204 1.849423 -0.512141
v -0.306866 1.193778 0.044645
v 0.145982 0.014447 0.467248
v 0.375489 0.401480 0.562296
v 0.074599 0.095642 0.670255
v -0.020791 1.827389 -0.413645
v -0.095923 1.805381 -0.560096
v 0.118077 0.709189 -0.511165
v 0.341791 1.021767 -0.226959
v -0.095005 1.810420 -0.574198
v 0.224991 0.190019 0.840285
v -0.084848 1.017386 -0.608095
v 0.279376 0.431977 0.252910
v -0.037381 1.861989 -0.609609
v 0.260248 0.465252 0.736254
v -0.217849 1.429137 -0.778255
v 0.108333 0.525026 -0.413682
v 0.371857 0.433876 0.370923
v -0.193404 1.490018 -0.753355
v 0.108040 0.658394 -0.484290
v 0.035338 0.025135 0.515784
v 0.293154 0.389889 0.201569
v -0.253599 1.312393 0.445332
v 0.292660 0.481367 0.199771
v 0.284973 0.817766 -0.057335
v -0.307429 1.002573 0.524421
v 0.239548 0.171046 0.046546
v -0.305711 1.254174 0.215684
v -0.307305 0.823785 0.500485
v 0.173419 0.209008 0.842629
v -0.225941 1.441272 -0.753475
v 0.291469 0.588498 0.192841
v -0.117647 1.772058 -0.454054
v -0.032498 1.832363 -0.413809
v -0.215077 1.573236 -0.637655
v 0.362854 0.503576 0.470278
v 0.366437 1.395790 -0.344877
v 0.236583 0.278591 0.825959
v 0.199405 1.758176 -0.320997
v 0.119830 1.809441 -0.423599
v -0.217082 1.264103 -0.699258
v 0.087301 0.187852 -0.233471
v 0.142198 0.062804 0.239473
v 0.231598 0.130504 0.051124
v -0.123517 1.178809 -0.679507
v -0.259071 1.308437 0.415531
v -0.262291 1.493454 -0.648951
v 0.083284 0.172762 -0.202167
v 0.116885 0.009286 0.461582
v -0.241356 1.463019 -0.708980
v 0.116627 0.154317 -0.023370
v -0.436746 0.505423 0.374219
v -0.019430 0.050339 0.582754
v -0.044917 0.179240 0.819429
v 0.260484 0.577965 0.325715
v -0.218946 1.346981 -0.734937
v -0.038804 0.128251 0.730546
v 0.002812 0.436810 -0.344470
v 0.090017 0.271667 -0.279702
v 0.293137 0.680186 0.200015
v -0.247543 1.322755 0.300872
v -0.224329 1.113353 0.597533
v 0.081012 0.077929 0.207680
v -0.436152 0.602601 0.396739
v 0.098112 0.422672 -0.360292
v 0.233966 1.727464 -0.261124
v -0.426457 1.114755 0.312794
v 0.102063 0.352228 -0.317939
v 0.153193 0.143100 0.048014
v 0.175712 0.119607 0.045662
v 0.189103 0.470275 0.822333
v 0.258052 0.483527 0.322720
v -0.315264 1.568794 -0.493588
v -0.237351 1.428559 -0.707688
v -0.007768 0.189824 0.829410
v -0.383676 0.692310 0.050207
v -0.158301 1.755282 -0.538294
v -0.062648 0.829117 -0.520169
v 0.205717 1.740110 -0.285539
v 0.082298 0.096527 0.122361
v 0.215015 0.642867 0.142318
v 0.278298 1.688286 -0.210270
v -0.240205 1.662452 -0.507238
v 0.292947 0.728617 0.190105
v 0.268908 1.696440 -0.202586
v -0.034948 0.560915 -0.395246
v 0.283789 0.902980 0.235224
v 0.293702 0.824112 0.189061
v 0.199228 0.742533 0.126258
v -0.069875 0.172509 -0.130819
v -0.380450 0.836465 0.047093
v -0.028455 0.086195 0.651420
v -0.044836 1.785437 -0.294037
v -0.137584 0.964059 0.629555
v 0.319671 1.248325 -0.208319
v -0.044754 1.810753 -0.350164
v 0.265538 1.424311 -0.105479
v -0.229706 1.689803 -0.497684
v -0.241849 1.273162 0.154415
v 0.276609 0.493173 0.346651
v -0.291114 1.534129 -0.564874
v -0.321337 0.677846 0.475082
v -0.276617 1.287169 0.238132
v 0.014319 0.204209 -0.229625
v -0.215998 0.922079 0.021979
v -0.009694 0.214368 0.838285
v 0.274591 1.551990 -0.153979
v -0.014851 0.021535 0.527280
v 0.151668 0.533058 0.821608
v -0.217194 1.160233 -0.646850
v -0.041265 0.000000 0.554464
v -0.225536 0.878425 0.024057
v 0.055033 0.141966 0.053354
v -0.223564 1.240440 0.029574
v -0.048711 0.061613 0.388876
v -0.264152 1.332173 -0.570911
v -0.112646 0.641029 -0.412705
v 0.103230 0.112401 0.049099
v 0.284952 1.074780 -0.095456
v -0.047214 0.062628 0.654651
v 0.032090 0.069866 0.278809
v -0.294071 1.631998 -0.460684
v -0.024562 0.099259 0.169509
v 0.203348 0.735797 0.118219
v -0.169598 1.084984 0.012449
v -0.049650 0.000307 0.543901
v -0.054426 0.132264 0.762986
v 0.325476 0.574336 0.542211
v 0.292932 0.932176 0.188466
v 0.192960 0.560650 0.800403
v 0.237525 0.543733 0.405837
v 0.230475 0.815758 0.081390
v 0.135130 1.711036 -0.182818
v -0.304274 1.390990 -0.455378
v -0.059359 0.205928 0.864440
v -0.064413 0.195923 0.861241
v -0.204569 0.957387 0.018542
v -0.160822 1.125496 0.014103
v 0.353591 0.568491 0.565478
v -0.009848 0.309666 -0.278035
v 0.221011 0.945375 0.138512
v -0.061026 1.781693 -0.274260
v -0.218447 1.079060 -0.602179
v -0.055392 0.199059 0.840088
v -0.080900 0.030144 0.531529
v 0.228777 0.580270 0.452885
v 0.185684 0.825527 0.099626
v -0.077079 0.217591 0.860286
v 0.255683 1.451607 -0.106921
v -0.041988 0.111721 0.063231
v 0.307096 0.597121 0.631119
v -0.042743 0.157645 -0.032991
v -0.236325 1.331110 0.290188
v -0.023748 0.258058 0.837776
v -0.142143 1.323538 0.478935
v -0.332468 1.596052 -0.437782
v -0.059901 0.212807 0.828944
v -0.149141 1.159486 0.009571
v -0.151057 0.051152 0.571748
v -0.143012 0.805114 -0.486982
v 0.100315 0.559116 0.825386
v 0.238640 0.632187 0.723305
v -0.274546 0.712643 0.029236
v -0.122030 0.497406 -0.340312
v -0.095682 0.211391 -0.205768
v -0.137934 0.031500 0.587198
v -0.216810 0.994916 -0.563670
v -0.091843 0.184349 -0.163714
v -0.144771 0.208593 0.833022
v 0.027304 0.377661 0.833668
v -0.185026 1.023955 0.017824
v 0.043405 1.718180 -0.168166
v 0.121530 0.686851 0.820622
v -0.114849 1.125618 0.668327
v -0.245122 1.646397 -0.333945
v -0.152586 0.150595 0.040871
v 0.159776 0.665433 0.799221
v 0.229962 0.914143 0.058244
v -0.291432 1.619629 -0.387248
v -0.057820 0.142491 0.062924
v -0.376168 0.495946 0.041020
v -0.173651 0.111070 0.708605
v -0.084810 0.257769 0.748468
v 0.012143 0.403550 0.803515
v 0.125220 1.502407 -0.104179
v -0.118365 1.204176 0.611905
v -0.109826 0.993435 0.647018
v -0.228840 0.169363 0.791422
v -0.438486 0.314366 0.367285
v 0.080944 0.554341 0.818262
v 0.235869 1.218100 0.424991
v -0.216765 0.873931 -0.502755
v 0.218410 0.609875 0.496018
v -0.218314 0.773058 -0.453286
v -0.096662 0.259443 0.758710
v 0.231668 0.621293 0.593998
v 0.179484 0.852248 0.108347
v 0.114680 0.668925 0.790978
v -0.185859 0.167933 -0.101451
v 0.100595 0.669924 0.750680
v -0.214241 1.658424 -0.294772
v -0.332705 1.486057 -0.389607
v -0.141952 1.700067 -0.213673
v -0.160514 1.324660 0.333565
v -0.210940 0.081724 0.509018
v -0.130214 1.219820 0.009108
v -0.136428 1.287965 0.015374
v -0.073895 1.753619 -0.209396
v -0.155585 0.118430 0.193917
v 0.242521 1.049695 0.016720
v -0.086776 1.726644 -0.147273
v -0.146782 0.127350 0.073566
v 0.212647 1.179354 0.517600
v -0.218215 0.680587 -0.407840
v -0.047128 1.357697 0.486691
v -0.214580 0.227436 -0.187159
v 0.212595 0.611804 0.504546
v 0.250650 1.354862 -0.072834
v -0.217185 0.575589 -0.357190
v -0.194854 0.453495 -0.303710
v -0.192322 0.184657 -0.146872
v 0.053880 0.593465 0.740164
v -0.128973 1.377465 0.260897
v 0.204226 0.760387 0.527361
v 0.139197 0.972703 0.077648
v 0.169460 0.628525 0.627593
v -0.088613 1.645948 -0.118008
v -0.215526 0.087913 0.415908
v -0.275728 0.187220 0.776305
v -0.119361 0.361931 0.610626
v 0.212262 0.757231 0.519253
v -0.248609 0.916396 -0.425883
v -0.190541 0.104203 0.322568
v -0.237839 0.840786 0.023002
v 0.287454 1.258544 0.193196
v 0.149147 1.058221 0.094063
v 0.241729 1.238098 -0.035092
v -0.287544 1.445648 -0.306694
v 0.065674 0.657820 0.690985
v -0.129531 1.333904 0.518737
v 0.011714 1.575022 -0.110434
v 0.151044 0.625622 0.521603
v 0.153346 0.928538 0.082103
v -0.217125 0.298693 -0.219754
v -0.097862 0.284724 0.698615
v -0.114746 1.331550 0.101467
v 0.278183 1.253846 0.255712
v -0.259683 0.078707 0.641021
v 0.036212 0.578570 0.746376
v 0.231843 1.266322 0.336809
v -0.297557 0.637539 0.029906
v -0.239011 0.252943 -0.139419
v -0.257954 0.178324 -0.003119
v 0.205667 1.200943 0.521264
v -0.286362 1.138163 -0.402926
v -0.119272 0.324103 0.631704
v -0.343352 0.112114 0.681463
v 0.220110 1.308002 0.240809
v 0.151752 1.101505 0.026981
v -0.338166 0.484364 0.445143
v -0.161224 0.147502 0.064892
v -0.234395 0.147128 0.139601
v 0.196540 1.029842 0.567152
v -0.055507 0.454037 0.666011
v 0.073920 0.629932 0.546584
v -0.328752 1.349479 -0.325819
v -0.269690 0.725740 -0.277217
v -0.219374 0.477828 -0.305171
v -0.131792 0.741763 0.599409
v 0.132534 1.319894 0.396131
v -0.329694 1.267105 -0.291258
v -0.098499 1.304747 0.012531
v -0.406875 0.139274 0.715583
v 0.195989 0.941444 0.555323
v -0.331086 1.264821 -0.304089
v -0.235460 0.179767 0.058007
v -0.027654 0.488632 0.672609
v 0.204834 0.851160 0.539122
v -0.254696 0.779629 0.026108
v 0.101616 1.053811 0.060248
v -0.248163 0.214077 -0.060834
v -0.276474 0.386043 -0.101613
v 0.166743 1.289233 0.125083
v 0.017006 0.640975 0.607907
v 0.191175 1.151218 0.582232
v 0.153200 1.228271 0.547772
v -0.169322 1.517754 -0.175771
v -0.109421 1.324152 0.397780
v 0.164818 1.333414 0.233032
v -0.038152 1.138425 0.645118
v 0.079735 1.245787 -0.004707
v -0.223834 0.248710 0.676043
v -0.108338 1.295995 0.007302
v -0.176051 0.320912 0.566730
v -0.159465 0.322737 0.561891
v -0.438774 0.226625 0.360027
v -0.332648 1.166063 -0.252338
v -0.260735 0.090192 0.622605
v -0.314327 0.216224 0.047306
v -0.302669 0.120553 0.445374
v 0.121611 1.276888 0.514087
v 0.024498 1.374556 -0.039753
v -0.008308 0.598720 0.600602
v 0.180884 1.166416 0.588257
v -0.320721 0.201625 0.054795
v -0.303712 0.247015 0.596577
v -0.075547 0.467728 0.587295
v -0.286332 0.203199 0.018161
v -0.063617 1.294189 0.009229
v 0.099394 1.190518 0.076585
v 0.043285 1.154030 0.037897
v -0.226677 0.159707 0.067840
v -0.414632 0.169359 0.720790
v -0.360549 0.196636 0.679379
v 0.071811 1.381243 0.338926
v 0.077118 1.340689 0.202853
v -0.385373 0.147737 0.538752
v -0.251323 0.292076 0.502240
v -0.078094 0.468090 0.569691
v 0.027150 0.635975 0.562465
v -0.092380 1.540591 -0.078638
v -0.326436 0.345023 0.011805
v -0.121262 0.389498 0.565430
v 0.106509 1.145771 0.614012
v 0.108756 1.250596 0.545238
v 0.016501 1.193829 0.028333
v 0.036573 0.802866 0.578212
v 0.064105 1.127755 0.048204
v -0.015435 0.579771 0.569114
v -0.160135 0.360465 0.525999
v -0.208328 0.347465 0.515181
v 0.058982 1.366461 0.447938
v 0.085579 1.373034 0.274388
v -0.099963 1.357318 -0.008362
v -0.282972 0.310306 -0.061122
v -0.089788 0.604918 0.586803
v -0.220522 0.328389 0.491348
v -0.102736 0.492213 0.580419
v 0.076338 1.289497 0.077556
v -0.327762 0.992066 -0.172029
v -0.096191 1.442918 -0.042130
v -0.249171 1.252539 -0.172947
v -0.286975 0.911384 -0.301951
v -0.122366 1.352430 0.183707
v -0.417238 0.157948 0.698596
v -0.162581 0.594127 0.564130
v -0.435767 0.385175 0.376098
v 0.025118 0.948047 0.603881
v -0.413930 0.198443 0.593156
v -0.333070 0.673691 -0.042129
v -0.317610 0.185435 0.083764
v -0.378194 0.259337 0.041959
v -0.420385 0.233582 0.264040
v -0.265767 0.294002 0.509099
v 0.056825 1.328984 0.492533
v 0.009693 1.322240 0.130239
v -0.350686 0.263923 0.460184
v -0.219424 0.506484 0.521737
v -0.188145 1.356577 -0.133228
v -0.345796 0.145315 0.306229
v 0.038368 1.394373 0.296005
v -0.306347 0.274681 0.471024
v 0.006983 1.290840 0.043849
v -0.332127 0.643677 -0.052651
v -0.102021 0.628320 0.596723
v 0.009954 1.124062 0.637895
v -0.004471 1.223452 0.021126
v -0.331988 0.989505 -0.185496
v -0.293801 0.292067 0.455936
v 0.029614 1.268133 0.542192
v -0.028246 1.252699 0.015080
v -0.403457 0.176515 0.529666
v -0.002520 1.236195 0.028043
v -0.360730 0.154021 0.316393
v -0.346970 0.356073 0.039233
v -0.411377 0.232930 0.419484
v -0.295353 0.302483 0.461295
v -0.334186 0.829000 -0.113684
v -0.000668 1.402440 0.299626
v 0.010597 1.378769 0.458827
v 0.011486 1.390931 0.368302
v -0.226775 1.032849 -0.045802
v -0.340463 0.532196 0.012289
v -0.382050 0.425697 0.050465
v -0.396803 0.244595 0.137218
v -0.372640 0.258162 0.413772
v -0.103709 0.802331 0.617169
v -0.067363 1.340107 0.433285
v -0.025247 1.360460 0.220783
v -0.347650 0.473120 0.037374
v -0.400524 0.195970 0.364498
v -0.411593 0.222887 0.490359
vn -0.2224 -0.4367 -0.8717
vn -0.2469 -0.4361 -0.8653
vn -0.2326 -0.4385 -0.8681
vn 0.7658 -0.3256 -0.5545
vn 0.7598 -0.3372 -0.5559
vn 0.7618 -0.3273 -0.5591
vn 0.5315 0.4859 -0.6938
vn 0.5071 0.5182 -0.6887
vn 0.3822 0.6516 -0.6552
vn 0.7668 -0.3271 -0.5524
vn 0.3762 0.6568 -0.6536
vn 0.5576 0.4541 -0.6949
vn 0.5589 0.4494 -0.6969
vn 0.5618 0.4470 -0.6961
vn 0.7588 -0.3373 -0.5571
vn 0.7551 -0.3437 -0.5583
vn 0.7601 -0.3269 -0.5616
vn 0.7547 -0.3410 -0.5605
vn 0.7575 -0.3308 -0.5629
vn 0.5433 0.4643 -0.6995
vn 0.5526 0.4569 -0.6970
vn 0.7602 -0.3289 -0.5603
vn 0.5545 0.4583 -0.6946
vn 0.5616 0.4532 -0.6922
vn -0.3362 0.2985 -0.8932
vn -0.2225 0.3347 -0.9157
vn -0.1867 0.3353 -0.9234
vn -0.2702 0.3239 -0.9067
vn -0.1638 0.3665 -0.9159
vn -0.1984 0.3534 -0.9142
vn 0.7575 -0.3285 -0.5642
vn 0.7493 -0.3552 -0.5589
vn -0.4263 0.2753 -0.8616
vn 0.7666 -0.3337 -0.5486
vn 0.7538 -0.3388 -0.5630
vn -0.1594 0.3591 -0.9196
vn 0.7311 -0.3500 -0.5857
vn 0.7644 -0.3338 -0.5515
vn -0.1455 0.3497 -0.9255
vn 0.7586 -0.3323 -0.5604
vn 0.7510 -0.3401 -0.5660
vn 0.5636 0.4591 -0.6867
vn 0.7709 -0.2887 -0.5678
vn 0.7466 -0.3112 -0.5879
vn 0.7617 -0.3259 -0.5601
vn 0.7620 -0.3347 -0.5543
vn 0.7462 -0.3432 -0.5705
vn -0.2537 -0.4411 -0.8608
vn -0.2366 -0.4397 -0.8664
vn -0.2284 -0.4438 -0.8665
vn 0.5501 0.4688 -0.6911
vn -0.2486 -0.4429 -0.8614
vn 0.7288 -0.3651 -0.5793
vn 0.5404 0.4693 -0.6984
vn 0.7362 -0.3444 -0.5826
vn 0.7603 -0.3316 -0.5586
vn -0.2642 -0.4387 -0.8589
vn 0.9229 0.0394 0.3830
vn 0.9185 0.0479 0.3926
vn 0.9304 0.0632 0.3610
vn 0.7342 -0.3440 -0.5853
vn 0.5997 0.4653 -0.6510
vn 0.5393 0.4833 -0.6896
vn 0.5507 0.4692 -0.6903
vn 0.9403 -0.1972 -0.2775
vn -0.2694 -0.4356 -0.8589
vn 0.9953 0.0509 0.0827
vn 0.5619 0.4655 -0.6839
vn 0.7536 -0.2694 -0.5996
vn 0.9378 0.0585 0.3422
vn -0.1629 0.3407 -0.9259
vn 0.7719 -0.3240 -0.5470
vn -0.4425 0.2725 -0.8544
vn 0.2673 -0.4797 -0.8357
vn -0.2136 0.3878 -0.8967
vn -0.1113 0.3817 -0.9176
vn 0.7201 -0.3163 -0.6176
vn 0.7647 -0.3324 -0.5520
vn 0.9938 -0.1080 0.0279
vn 0.9947 -0.1008 0.0201
vn 0.9942 -0.1049 0.0245
vn 0.5278 0.3012 0.7942
vn 0.5271 0.7473 -0.4046
vn 0.5368 0.7275 -0.4274
vn 0.5294 0.7422 -0.4110
vn 0.9923 -0.0873 0.0881
vn 0.9922 -0.0865 0.0894
vn 0.9928 -0.1047 0.0588
vn 0.6792 0.7323 -0.0504
vn 0.6810 0.7302 -0.0546
vn 0.6820 0.7295 -0.0510
vn 0.9225 0.0693 0.3796
vn -0.2567 -0.4381 -0.8615
vn -0.2441 -0.4417 -0.8633
vn 0.5211 0.7659 -0.3768
vn 0.4026 -0.8796 0.2534
vn 0.3845 -0.8876 0.2534
vn 0.3898 -0.8856 0.2525
vn 0.5023 -0.8608 -0.0823
vn 0.4883 -0.8678 -0.0924
vn 0.4602 -0.8813 -0.1072
vn 0.7027 -0.5528 0.4479
vn 0.7374 -0.5238 0.4264
vn 0.6789 -0.5958 0.4290
vn 0.7690 -0.6331 -0.0878
vn 0.7641 -0.6402 -0.0788
vn 0.7677 -0.6355 -0.0823
vn 0.4635 -0.8757 -0.1350
vn 0.7219 -0.5327 0.4416
vn 0.9146 -0.4001 -0.0576
vn 0.9560 -0.2862 -0.0640
vn 0.9201 -0.3872 -0.0585
vn 0.4316 -0.8924 -0.1316
vn 0.7564 -0.4962 0.4261
vn 0.8677 0.0443 0.4951
vn 0.8781 -0.0399 0.4768
vn 0.8363 -0.0851 0.5416
vn 0.8567 0.0379 0.5144
vn 0.6720 -0.7365 -0.0780
vn 0.9639 -0.2612 -0.0525
vn 0.9408 -0.3368 -0.0371
vn 0.8621 0.1021 0.4964
vn 0.6595 -0.7465 -0.0876
vn 0.9930 0.1178 -0.0076
vn 0.9927 0.1193 -0.0162
vn 0.9987 0.0501 0.0041
vn 0.4297 -0.8975 -0.0993
vn 0.5460 0.7167 -0.4339
vn 0.9923 -0.0951 0.0799
vn 0.6847 0.7276 -0.0420
vn 0.9999 -0.0052 -0.0120
vn 0.9971 0.0744 0.0129
vn 0.1759 0.8846 -0.4319
vn 0.0294 0.8367 -0.5468
vn 0.1554 0.8771 -0.4545
vn 0.7742 -0.3291 -0.5407
vn 0.4839 0.5112 -0.7103
vn 0.4428 0.5239 -0.7276
vn -0.1740 0.3476 -0.9214
vn 0.6446 -0.4188 -0.6396
vn 0.6977 -0.3643 -0.6169
vn 0.8077 0.5455 0.2238
vn 0.6872 0.7257 -0.0324
vn 0.8881 -0.4552 -0.0642
vn 0.9908 0.1346 -0.0098
vn 0.6733 0.7347 -0.0825
vn 0.6656 0.7353 -0.1278
vn 0.5643 0.8250 -0.0297
vn 0.7107 0.7025 0.0374
vn 0.9225 0.0651 0.3805
vn 0.9225 0.0692 0.3797
vn 0.9999 -0.0052 -0.0121
vn 0.9987 -0.0481 -0.0184
vn 0.7900 -0.3301 -0.5167
vn 0.9568 0.0253 0.2896
vn -0.1592 0.3960 -0.9043
vn 0.8795 -0.4710 -0.0684
vn 0.6718 -0.7369 -0.0754
vn 0.3819 -0.8887 0.2535
vn 0.9485 0.0986 0.3012
vn 0.6584 0.7285 0.1889
vn 0.6648 0.7297 -0.1599
vn 0.9569 0.0921 0.2753
vn 0.6149 0.7023 0.3587
vn -0.3077 0.4166 -0.8554
vn -0.3373 0.4199 -0.8426
vn 0.7303 -0.3211 -0.6029
vn 0.8002 -0.2530 -0.5438
vn 0.6755 0.5394 -0.5027
vn 0.8536 0.1256 0.5056
vn 0.8700 0.0962 0.4836
vn 0.9932 -0.1121 0.0323
vn -0.2095 0.3576 -0.9101
vn 0.9241 0.0576 0.3778
vn 0.9219 0.0704 0.3810
vn 0.9236 0.0624 0.3782
vn -0.2244 -0.4377 -0.8707
vn -0.1415 -0.4738 -0.8692
vn 0.3842 -0.8877 0.2537
vn 0.3796 -0.8909 0.2492
vn 0.7488 -0.4833 0.4537
vn 0.9569 0.0893 0.2765
vn 0.9665 0.0114 0.2564
vn 0.9915 0.1304 0.0021
vn 0.9348 -0.0492 0.3518
vn 0.7322 -0.3524 -0.5828
vn 0.5503 0.7095 -0.4402
vn 0.9208 0.0854 0.3805
vn 0.7220 -0.5327 0.4416
vn 0.7514 -0.4743 0.4587
vn 0.8529 0.1096 0.5105
vn 0.7020 -0.3613 -0.6138
vn 0.7387 -0.3235 -0.5913
vn 0.4755 -0.1838 -0.8603
vn 0.3790 -0.8920 0.2464
vn -0.1891 -0.4312 -0.8822
vn 0.6538 0.7553 -0.0462
vn 0.5154 0.8569 -0.0032
vn 0.3909 -0.9147 -0.1021
vn 0.6818 -0.3813 -0.6243
vn 0.2908 -0.9375 -0.1911
vn -0.6984 0.4987 -0.5135
vn -0.6779 0.5078 -0.5316
vn -0.7230 0.4890 -0.4880
vn 0.6456 -0.5666 -0.5120
vn 0.6356 -0.5699 -0.5208
vn 0.7303 -0.3212 -0.6029
vn -0.7225 0.4925 -0.4852
vn -0.7195 0.4951 -0.4870
vn 0.1074 0.8514 -0.5134
vn 0.9441 -0.2324 -0.2336
vn 0.9397 -0.2485 -0.2350
vn 0.9469 -0.2202 -0.2344
vn 0.6890 0.7238 -0.0372
vn 0.6623 -0.5762 -0.4790
vn 0.7387 -0.3236 -0.5913
vn 0.9641 -0.1823 -0.1928
vn 0.9646 -0.1814 -0.1912
vn 0.8423 0.1427 0.5198
vn -0.0942 0.8982 0.4295
vn -0.1083 0.8982 0.4260
vn 0.0440 0.9203 0.3887
vn -0.7178 0.5038 -0.4806
vn 0.2660 -0.9005 -0.3441
vn 0.2515 -0.8839 -0.3943
vn 0.2485 -0.8844 -0.3950
vn 0.1212 0.8539 -0.5061
vn 0.9260 0.0543 0.3735
vn 0.9260 0.0545 0.3737
vn 0.9227 0.0536 0.3817
vn 0.9134 0.1245 0.3875
vn 0.9192 0.0948 0.3822
vn 0.0415 0.0121 -0.9991
vn 0.0644 0.0015 -0.9979
vn 0.0644 0.0016 -0.9979
vn 0.9246 0.0596 0.3763
vn 0.9258 0.0624 0.3728
vn 0.9262 0.0580 0.3726
vn 0.6230 -0.4035 -0.6701
vn 0.2814 -0.6644 0.6924
vn 0.1534 0.9393 0.3070
vn 0.1547 0.9332 0.3244
vn -0.7230 0.4871 -0.4899
vn -0.2406 -0.4365 -0.8669
vn 0.3760 -0.9153 -0.1443
vn 0.9913 0.1315 0.0004
vn -0.7189 0.4939 -0.4892
vn 0.6518 -0.3682 -0.6630
vn -0.7123 0.4967 -0.4960
vn 0.3673 -0.9251 -0.0959
vn 0.4776 -0.8628 -0.1658
vn 0.5043 -0.0275 -0.8631
vn 0.5133 -0.0414 -0.8572
vn 0.5329 -0.0388 -0.8453
vn 0.6778 0.7344 -0.0361
vn 0.0023 0.0301 -0.9995
vn 0.3782 -0.8924 0.2462
vn 0.6856 0.7274 -0.0286
vn -0.1844 0.3565 -0.9159
vn -0.2499 -0.4381 -0.8635
vn 0.3036 -0.9273 -0.2188
vn 0.3049 -0.9352 -0.1803
vn 0.2894 -0.9033 -0.3167
vn 0.0310 -0.9218 0.3865
vn 0.0121 -0.9248 0.3802
vn 0.0038 -0.9065 0.4222
vn -0.0138 -0.9118 0.4104
vn -0.0356 -0.8968 0.4410
vn 0.5301 -0.0483 -0.8466
vn -0.6208 0.7765 0.1077
vn -0.6219 0.7775 0.0930
vn -0.6220 0.7752 0.1110
vn -0.3845 0.8002 0.4603
vn 0.5495 0.7107 -0.4394
vn 0.4647 -0.8178 -0.3396
vn 0.4749 -0.7996 -0.3676
vn 0.4761 -0.7972 -0.3712
vn 0.9317 0.0686 0.3568
vn 0.0257 -0.7474 0.6638
vn 0.0011 -0.7319 0.6814
vn -0.0136 -0.7202 0.6936
vn 0.8227 0.1476 0.5490
vn 0.9918 0.1273 0.0049
vn 0.2518 0.9009 0.3535
vn 0.4907 -0.0145 -0.8712
vn 0.5273 -0.0422 -0.8486
vn 0.0790 -0.9112 0.4042
vn 0.0790 0.9190 0.3862
vn -0.7253 0.4893 -0.4843
vn -0.7051 0.4930 -0.5098
vn -0.2405 -0.4264 -0.8720
vn -0.5576 0.7926 0.2469
vn -0.5561 0.7935 0.2473
vn -0.5520 0.7947 0.2524
vn 0.6905 -0.3643 -0.6249
vn 0.3244 -0.9329 -0.1567
vn 0.9678 0.0102 0.2514
vn 0.9687 0.0033 0.2481
vn 0.9660 0.0006 0.2586
vn 0.0152 -0.4700 -0.8826
vn -0.2137 -0.4531 -0.8655
vn -0.1592 -0.4499 -0.8787
vn 0.7215 -0.3641 -0.5890
vn -0.0216 0.8909 0.4536
vn -0.6208 0.7765 0.1078
vn -0.6189 0.7737 0.1355
vn 0.0190 -0.4705 -0.8822
vn 0.9922 0.1250 0.0001
vn 0.9796 -0.0021 -0.2009
vn 0.9804 -0.0024 -0.1970
vn 0.9961 -0.0055 0.0884
vn 0.3280 0.1088 0.9384
vn 0.3233 0.1097 0.9399
vn 0.3487 0.1050 0.9313
vn 0.9671 -0.0145 0.2541
vn -0.2605 -0.4178 -0.8704
vn 0.6018 -0.4008 -0.6908
vn -0.0203 0.0423 -0.9989
vn -0.7271 0.4865 -0.4844
vn 0.2627 -0.9453 -0.1935
vn 0.0758 -0.9306 0.3581
vn 0.0976 -0.9323 0.3482
vn 0.4633 -0.8201 -0.3359
vn 0.0987 -0.9672 -0.2338
vn 0.2078 -0.9588 -0.1938
vn -0.0031 -0.9758 -0.2185
vn 0.3618 0.8633 0.3518
vn -0.6154 0.7758 0.1394
vn -0.7197 0.4930 -0.4888
vn 0.8334 0.1231 0.5388
vn 0.0674 -0.9002 0.4302
vn 0.9915 0.1299 0.0079
vn -0.7207 0.4789 -0.5012
vn -0.9548 -0.1213 -0.2715
vn -0.9550 -0.1202 -0.2710
vn -0.9582 -0.1022 -0.2672
vn -0.9561 -0.1196 -0.2675
vn -0.9549 -0.1217 -0.2707
vn -0.0392 0.0561 -0.9977
vn 0.0875 0.0648 0.9941
vn 0.0332 0.0688 0.9971
vn 0.0721 0.0729 0.9947
vn -0.9510 -0.1393 -0.2762
vn -0.9401 -0.1488 -0.3066
vn 0.6718 -0.3850 -0.6328
vn 0.6802 -0.3708 -0.6323
vn 0.3511 0.1046 0.9305
vn 0.9241 0.0599 0.3774
vn -0.2442 -0.4349 -0.8667
vn 0.4074 -0.4537 -0.7926
vn 0.4051 -0.4543 -0.7934
vn -0.0336 -0.8828 0.4686
vn 0.6842 0.1802 0.7067
vn 0.5441 -0.0313 -0.8384
vn -0.4864 0.7784 0.3968
vn 0.2127 -0.8457 -0.4894
vn -0.7191 0.4827 -0.5000
vn -0.1298 -0.9676 -0.2166
vn -0.2246 -0.4337 -0.8726
vn -0.1899 -0.4553 -0.8698
vn -0.2056 -0.4396 -0.8744
vn -0.0479 0.0550 -0.9973
vn 0.6792 0.7338 -0.0160
vn -0.7206 0.5039 -0.4763
vn 0.0011 -0.7319 0.6815
vn -0.0172 -0.6614 0.7498
vn 0.6021 0.1639 0.7814
vn 0.5981 0.1648 0.7843
vn 0.9750 0.0031 0.2221
vn 0.9132 0.1300 0.3862
vn 0.6662 0.7452 -0.0293
vn 0.6180 0.7826 -0.0753
vn 0.8318 0.0987 0.5462
vn 0.1534 -0.9551 -0.2534
vn 0.9535 -0.0340 0.2995
vn 0.9980 -0.0088 -0.0619
vn 0.0810 0.9082 0.4107
vn 0.2900 -0.9115 -0.2918
vn -0.0156 -0.6564 0.7542
vn 0.9821 0.0099 0.1879
vn -0.0053 0.8906 0.4547
vn 0.0191 -0.9698 -0.2431
vn -0.1304 -0.9871 0.0924
vn -0.0451 -0.2421 0.9692
vn -0.0444 -0.2472 0.9679
vn -0.0953 -0.3420 0.9348
vn 0.5339 0.7234 -0.4378
vn 0.5352 -0.0157 -0.8446
vn -0.4830 0.7770 0.4036
vn 0.5086 0.7277 -0.4601
vn -0.1073 -0.9451 -0.3086
vn -0.0077 -0.9904 -0.1377
vn -0.0235 -0.9900 -0.1393
vn -0.1767 -0.9616 -0.2099
vn -0.9534 -0.1273 -0.2736
vn -0.2401 -0.4293 -0.8706
vn -0.0783 -0.9751 -0.2075
vn 0.9161 0.1050 0.3869
vn 0.2185 0.8962 0.3862
vn -0.0563 -0.8677 0.4939
vn -0.0161 0.8801 0.4745
vn -0.6182 0.7733 0.1411
vn -0.2174 -0.4389 -0.8719
vn 0.9294 0.0488 0.3658
vn 0.9216 0.0674 0.3822
vn 0.1385 0.9159 0.3766
vn -0.1884 -0.9527 -0.2384
vn -0.7206 0.5038 -0.4763
vn -0.1781 -0.4554 -0.8723
vn -0.1519 -0.4736 -0.8675
vn -0.1884 -0.4548 -0.8704
vn 0.1689 -0.8690 0.4651
vn -0.0040 -0.8850 0.4655
vn 0.4616 0.8071 -0.3681
vn 0.4046 0.8340 0.3752
vn -0.6245 0.7659 0.1529
vn -0.7173 0.4586 -0.5245
vn 0.5606 -0.0133 -0.8280
vn -0.4509 0.7331 -0.5092
vn -0.0740 -0.3442 0.9360
vn 0.9336 0.2245 0.2793
vn 0.9297 0.1974 0.3110
vn 0.9304 0.2121 0.2991
vn -0.0581 -0.9760 -0.2100
vn 0.3818 0.2766 0.8819
vn 0.5266 0.2021 0.8257
vn 0.3866 0.2698 0.8819
vn 0.0252 0.0128 0.9996
vn 0.4880 0.7355 -0.4699
vn 0.2488 0.8119 -0.5282
vn 0.2525 0.8136 -0.5237
vn 0.2532 0.8132 -0.5241
vn 0.6343 0.2773 0.7217
vn 0.7210 0.2321 0.6529
vn 0.7275 0.2280 0.6471
vn -0.2193 -0.4382 -0.8717
vn -0.2076 -0.4419 -0.8727
vn -0.0089 -0.9867 -0.1622
vn 0.0029 -0.9876 -0.1567
vn 0.5768 -0.0298 -0.8164
vn 0.9266 0.0589 0.3715
vn -0.1056 -0.9045 -0.4133
vn 0.1491 0.9162 0.3719
vn -0.1653 -0.8611 -0.4809
vn 0.0381 -0.9889 -0.1436
vn -0.9559 -0.1182 -0.2690
vn -0.9551 -0.1201 -0.2708
vn -0.2242 -0.4300 -0.8746
vn 0.6625 -0.7473 0.0517
vn -0.0621 0.0410 -0.9972
vn -0.1969 -0.9531 -0.2299
vn 0.7565 -0.5378 0.3721
vn 0.7474 -0.5423 0.3840
vn 0.7456 -0.5438 0.3852
vn -0.9498 -0.1382 -0.2808
vn 0.2676 -0.9333 -0.2395
vn 0.7692 -0.5323 0.3535
vn 0.7788 -0.5280 0.3385
vn -0.2199 -0.4343 -0.8735
vn 0.5171 0.2850 0.8071
vn -0.7179 0.4125 -0.5608
vn -0.9572 -0.1167 -0.2650
vn 0.7183 -0.5612 0.4113
vn -0.6187 0.7699 0.1566
vn 0.7307 -0.5394 0.4186
vn 0.7349 -0.5326 0.4198
vn 0.3221 0.8465 0.4239
vn -0.9385 -0.1580 -0.3071
vn -0.9353 -0.1578 -0.3166
vn -0.1073 -0.9875 -0.1151
vn 0.3521 -0.8012 0.4838
vn 0.0126 0.0304 0.9995
vn 0.1415 0.7969 -0.5873
vn 0.5716 0.0097 -0.8205
vn 0.5806 0.0146 -0.8141
vn -0.6177 0.7721 0.1493
vn -0.6157 0.7731 0.1523
vn -0.1583 -0.8179 -0.5531
vn -0.1383 -0.9801 -0.1424
vn -0.6196 0.7650 0.1757
vn -0.1940 -0.7050 -0.6821
vn 0.9746 0.1947 0.1111
vn -0.0882 -0.0061 -0.9961
vn 0.0181 0.0343 0.9992
vn 0.9809 0.0042 0.1944
vn -0.7211 0.4957 -0.4841
vn 0.5901 0.2269 0.7748
vn -0.3426 -0.1595 0.9258
vn -0.3337 -0.1599 0.9290
vn -0.3135 -0.1418 0.9389
vn 0.9142 0.0666 0.3997
vn -0.1500 -0.3466 0.9259
vn 0.9699 0.0001 0.2436
vn 0.9793 0.0134 0.2019
vn -0.4625 -0.7080 -0.5337
vn -0.3892 -0.6698 -0.6323
vn -0.4276 -0.6897 -0.5844
vn -0.2519 -0.9523 0.1723
vn 0.8199 -0.5021 0.2752
vn 0.7814 0.1769 0.5984
vn 0.4420 0.8481 -0.2921
vn -0.2141 -0.4275 -0.8783
vn 0.2420 -0.6360 0.7328
vn 0.5668 0.8124 -0.1368
vn 0.0747 0.0124 0.9971
vn 0.4488 0.7812 -0.4340
vn 0.1301 0.7947 -0.5929
vn 0.9293 0.0573 0.3648
vn -0.0931 -0.0534 -0.9942
vn 0.9663 -0.0654 0.2490
vn 0.6091 -0.0148 -0.7929
vn 0.9250 0.0626 0.3749
vn -0.9601 -0.1120 -0.2561
vn 0.0321 0.0219 0.9992
vn 0.0308 0.0215 0.9993
vn 0.5787 0.2524 0.7755
vn -0.0344 -0.9866 -0.1598
vn 0.0306 0.0215 0.9993
vn 0.0820 0.0099 0.9966
vn 0.4703 0.2186 0.8550
vn 0.1413 0.9040 0.4035
vn -0.6259 0.7650 0.1514
vn -0.3427 -0.1595 0.9258
vn -0.3539 -0.2038 0.9128
vn -0.6717 0.4172 0.6122
vn -0.6211 0.3604 0.6959
vn -0.7470 0.3814 0.5446
vn -0.4819 -0.7525 -0.4489
vn -0.0977 -0.8441 0.5272
vn -0.0944 -0.8400 0.5343
vn -0.0932 -0.8432 0.5295
vn 0.7741 0.5320 0.3431
vn 0.9701 -0.0004 0.2427
vn 0.9758 0.1925 0.1038
vn 0.5774 0.2447 0.7789
vn 0.9812 0.0085 0.1927
vn 0.1742 0.3496 0.9206
vn 0.1704 0.3407 0.9246
vn 0.1667 0.3465 0.9231
vn 0.1331 0.9085 0.3962
vn -0.1837 -0.9504 -0.2511
vn -0.9522 -0.1248 -0.2787
vn -0.2198 -0.4356 -0.8729
vn -0.0982 -0.8457 0.5245
vn -0.0986 -0.8464 0.5233
vn 0.3360 0.2577 0.9059
vn -0.3460 -0.4116 -0.8431
vn -0.2124 -0.4424 -0.8713
vn 0.0018 0.0370 0.9993
vn 0.3575 0.9257 -0.1236
vn 0.3523 0.9264 -0.1331
vn 0.3592 0.8885 -0.2854
vn -0.0991 -0.0609 -0.9932
vn -0.7737 0.2985 0.5588
vn -0.7172 0.3081 0.6251
vn 0.5634 0.0226 -0.8259
vn -0.3633 -0.1855 0.9130
vn 0.6395 0.2282 0.7341
vn -0.4944 -0.7168 -0.4917
vn 0.3468 0.9329 -0.0973
vn 0.9698 -0.0265 0.2423
vn -0.2076 -0.9585 -0.1952
vn -0.3006 0.8685 0.3941
vn -0.2810 0.8671 0.4114
vn -0.3295 0.8470 0.4171
vn 0.9404 0.1161 0.3196
vn -0.6177 0.7609 0.1989
vn -0.6130 0.7625 0.2067
vn -0.8054 0.2393 0.5424
vn -0.7988 0.2390 0.5521
vn -0.7967 0.2379 0.5556
vn -0.2074 -0.4320 -0.8777
vn -0.7935 0.3834 0.4726
vn -0.3804 0.1943 0.9042
vn -0.3701 0.1291 0.9200
vn -0.3753 0.1606 0.9129
vn -0.3641 0.0950 0.9265
vn -0.0924 -0.8407 0.5335
vn -0.7746 0.2640 0.5748
vn 0.2684 0.2666 0.9257
vn -0.1232 -0.8560 -0.5022
vn 0.4358 0.8370 0.3309
vn 0.5931 0.7782 0.2063
vn 0.5807 0.7847 0.2171
vn 0.5790 0.2626 0.7719
vn 0.9708 -0.0000 0.2398
vn -0.9636 -0.1055 -0.2456
vn -0.9611 -0.1102 -0.2531
vn -0.0890 -0.8424 0.5314
vn -0.7897 0.2672 0.5522
vn 0.9497 0.2722 -0.1546
vn 0.9496 0.2715 -0.1566
vn 0.9513 0.2947 -0.0906
vn -0.2084 -0.4283 -0.8793
vn -0.0759 -0.9783 -0.1928
vn 0.4358 0.8370 0.3310
vn 0.4163 0.8416 0.3442
vn -0.9308 -0.1751 0.3210
vn 0.1625 0.3397 0.9264
vn 0.1499 0.3347 0.9303
vn -0.2017 -0.4302 -0.8799
vn -0.2846 -0.9484 -0.1395
vn 0.1254 0.9002 0.4169
vn -0.7859 0.2359 0.5716
vn -0.7883 0.3273 0.5210
vn -0.7851 0.3119 0.5351
vn -0.9420 -0.1440 -0.3033
vn -0.9399 -0.1461 -0.3087
vn 0.9685 -0.0000 0.2490
vn -0.1028 -0.9899 -0.0971
vn 0.3758 0.8452 -0.3800
vn 0.3246 0.8925 -0.3132
vn 0.3339 0.8847 -0.3252
vn 0.1795 0.9688 -0.1707
vn 0.1181 0.9826 -0.1434
vn 0.1831 0.9632 -0.1968
vn -0.2061 -0.9693 -0.1343
vn 0.9512 0.2959 -0.0871
vn -0.9389 -0.1438 -0.3128
vn -0.1232 -0.8560 -0.5021
vn -0.7890 0.2315 0.5690
vn -0.3578 -0.9314 -0.0669
vn -0.3605 -0.9305 -0.0643
vn -0.3600 -0.1794 0.9156
vn -0.6132 0.7630 0.2042
vn -0.2569 -0.4270 -0.8670
vn -0.1355 0.9879 -0.0759
vn 0.0819 0.9917 -0.0995
vn -0.2338 -0.9659 -0.1113
vn 0.6085 0.0887 -0.7886
vn 0.1688 0.3383 0.9258
vn 0.1718 0.3349 0.9265
vn 0.3877 0.8326 -0.3956
vn 0.8190 -0.0559 0.5711
vn 0.6951 -0.0802 0.7144
vn 0.8147 -0.0565 0.5771
vn 0.6102 0.2035 0.7657
vn 0.6649 0.1951 0.7210
vn -0.3581 0.8519 0.3822
vn -0.6728 0.6968 -0.2488
vn -0.6776 0.6915 -0.2505
vn -0.6529 0.7070 -0.2716
vn 0.1311 0.9641 -0.2309
vn 0.9883 0.0337 0.1491
vn -0.1961 -0.4317 -0.8804
vn -0.1076 -0.0653 -0.9921
vn -0.8205 0.2712 0.5032
vn -0.6469 0.7095 -0.2795
vn 0.1318 0.9824 -0.1323
vn 0.6902 -0.0877 0.7183
vn 0.4566 0.8233 0.3372
vn -0.7926 0.2387 0.5611
vn -0.3020 0.8822 0.3613
vn -0.8210 0.3437 0.4558
vn 0.5980 0.2149 0.7722
vn 0.6003 0.2122 0.7711
vn -0.0506 -0.9881 -0.1455
vn -0.4950 -0.7167 -0.4912
vn -0.4943 -0.7481 -0.4428
vn -0.7877 0.2344 0.5697
vn -0.7918 0.2241 0.5682
vn -0.2009 -0.7250 -0.6588
vn -0.4913 -0.7492 -0.4441
vn 0.5567 0.0835 -0.8265
vn 0.5525 0.0672 -0.8308
vn 0.2194 -0.1279 0.9672
vn 0.2676 -0.1393 0.9534
vn 0.2365 -0.1344 0.9623
vn -0.0910 -0.8481 0.5220
vn 0.1671 0.3173 0.9335
vn -0.2868 -0.9424 -0.1720
vn -0.8285 0.4332 0.3549
vn -0.8314 0.4664 0.3022
vn -0.8245 0.4581 0.3322
vn 0.2007 0.2869 0.9367
vn 0.2559 0.2991 0.9193
vn -0.5024 -0.3744 -0.7793
vn -0.5016 -0.3747 -0.7797
vn -0.0375 -0.4176 -0.9078
vn -0.0589 -0.4300 -0.9009
vn -0.1027 -0.4554 -0.8843
vn -0.3707 -0.4205 -0.8281
vn -0.4611 -0.8519 -0.2481
vn -0.3247 -0.9429 0.0742
vn -0.4409 0.7938 0.4189
vn -0.8245 0.4580 0.3323
vn -0.8197 0.4270 0.3819
vn 0.6810 0.6551 0.3272
vn 0.6541 0.7246 0.2171
vn 0.6433 0.7055 0.2972
vn 0.1705 0.3325 0.9276
vn 0.1695 0.3362 0.9264
vn 0.4598 0.8218 0.3365
vn -0.8484 0.2670 0.4572
vn 0.6628 0.7313 0.1609
vn 0.6778 0.7188 0.1546
vn -0.9552 -0.1223 -0.2696
vn -0.9480 -0.1254 -0.2925
vn -0.8059 -0.5201 -0.2829
vn -0.8251 -0.5502 -0.1283
vn -0.8053 -0.5195 -0.2856
vn 0.0958 0.9910 -0.0939
vn -0.8045 0.2364 0.5449
vn -0.9637 0.0910 0.2509
vn -0.9616 0.0928 0.2584
vn -0.9928 0.0599 0.1040
vn 0.3109 0.2541 0.9159
vn 0.6045 0.6764 0.4208
vn -0.9415 -0.1399 -0.3067
vn -0.9339 -0.1550 -0.3221
vn -0.9314 -0.1558 -0.3290
vn -0.7826 -0.4937 -0.3791
vn -0.8784 0.2310 0.4183
vn -0.9361 -0.1579 -0.3143
vn -0.3286 -0.9179 -0.2222
vn -0.0843 -0.8467 0.5253
vn 0.6110 0.7579 0.2287
vn 0.4088 0.2805 0.8684
vn -0.9167 0.3901 0.0862
vn 0.6875 -0.0978 0.7195
vn 0.9499 0.0004 0.3125
vn 0.8976 0.2426 0.3681
vn 0.9134 0.2395 0.3292
vn -0.7587 0.6390 -0.1266
vn 0.1019 0.9823 -0.1573
vn 0.8576 -0.0406 0.5126
vn -0.7848 0.2399 0.5714
vn -0.9223 -0.1744 -0.3449
vn -0.9114 -0.1976 -0.3608
vn -0.9167 -0.2120 -0.3387
vn 0.5589 0.2345 -0.7954
vn 0.5088 0.0877 -0.8564
vn 0.6177 0.1195 -0.7773
vn 0.5807 0.1081 -0.8069
vn -0.3640 -0.9271 -0.0894
vn -0.8341 0.4012 0.3784
vn 0.2643 -0.1371 0.9546
vn -0.1183 -0.4773 -0.8707
vn 0.6037 0.7473 0.2775
vn -0.3668 -0.8968 -0.2474
vn -0.4499 0.8190 0.3561
vn -0.7527 0.6367 -0.1675
vn 0.6236 0.7048 0.3381
vn -0.3359 -0.2360 0.9118
vn 0.3301 -0.1319 0.9347
vn 0.2929 -0.1386 0.9460
vn -0.9934 0.0602 0.0971
vn -0.1182 -0.4774 -0.8707
vn -0.0968 -0.4696 -0.8775
vn 0.2983 0.3149 0.9010
vn -0.3567 -0.9216 0.1530
vn 0.9036 0.1643 0.3957
vn 0.4773 0.1018 -0.8728
vn -0.7911 0.2378 0.5636
vn -0.0804 -0.8474 0.5249
vn -0.8235 0.4075 0.3946
vn 0.4720 0.5464 -0.6919
vn 0.1910 0.3195 0.9281
vn -0.5673 0.6816 0.4622
vn -0.8171 0.4215 0.3932
vn -0.7875 0.2414 0.5670
vn 0.5833 0.6586 0.4755
vn -0.9367 -0.1443 -0.3190
vn -0.3856 0.8699 0.3076
vn -0.8571 -0.3451 -0.3824
vn -0.7554 -0.4832 -0.4426
vn -0.7803 -0.3532 -0.5161
vn -0.8755 0.2336 0.4230
vn 0.3091 0.8821 -0.3555
vn 0.2323 0.9015 -0.3651
vn 0.2411 0.8933 -0.3794
vn -0.7886 0.2431 0.5649
vn -0.8041 0.5923 -0.0511
vn 0.2913 -0.1235 0.9486
vn 0.2150 0.3446 0.9138
vn -0.9215 -0.1432 -0.3610
vn 0.4249 0.9039 -0.0489
vn 0.4268 0.8993 -0.0956
vn 0.4280 0.8968 -0.1124
vn 0.1703 0.3393 0.9251
vn -0.1217 -0.4134 -0.9024
vn -0.3328 -0.2435 0.9110
vn -0.2704 0.9276 0.2578
vn -0.3132 0.9069 0.2818
vn 0.1693 0.8993 -0.4033
vn 0.2410 0.8933 -0.3794
vn -0.3568 -0.9216 0.1530
vn -0.4328 -0.8833 0.1801
vn -0.3715 -0.9269 -0.0537
vn -0.2034 0.9134 -0.3526
vn -0.1878 0.9306 -0.3142
vn -0.1747 0.9553 -0.2384
vn 0.8031 0.3538 0.4794
vn 0.1743 0.3352 0.9259
vn -0.9932 0.0660 0.0961
vn -0.8273 0.5614 0.0202
vn -0.8118 0.4211 0.4046
vn -0.8618 0.4394 0.2533
vn 0.5868 0.6107 0.5318
vn -0.4408 -0.8855 -0.1465
vn 0.5837 0.7819 0.2190
vn -0.7554 -0.4831 -0.4427
vn -0.7603 -0.2496 -0.5997
vn -0.5586 -0.6171 -0.5543
vn -0.7872 0.4269 0.4451
vn -0.8335 0.4153 0.3645
vn 0.2770 0.3895 0.8784
vn -0.7874 0.2450 0.5656
vn -0.1342 -0.4051 -0.9043
vn -0.3068 -0.8976 -0.3164
vn -0.3149 -0.8425 -0.4370
vn 0.2613 -0.1513 0.9533
vn 0.6371 0.7295 0.2489
vn 0.0985 0.9913 -0.0871
vn 0.3932 -0.0962 0.9144
vn 0.3617 -0.1017 0.9267
vn -0.9553 -0.1154 -0.2722
vn 0.4151 0.9093 -0.0291
vn -0.8951 -0.2025 -0.3971
vn -0.7814 0.4228 0.4590
vn 0.3027 -0.1417 0.9425
vn -0.1625 0.4884 0.8573
vn 0.5558 0.1565 -0.8164
vn -0.9515 -0.1173 -0.2844
vn 0.7104 0.3172 -0.6282
vn -0.3685 -0.9265 -0.0766
vn 0.3427 0.6434 0.6845
vn 0.3220 0.6633 0.6755
vn 0.2220 0.6128 0.7584
vn -0.5464 0.6176 0.5656
vn -0.5748 0.5586 0.5980
vn -0.5822 0.5775 0.5723
vn -0.8678 0.4780 0.1354
vn -0.8621 0.4952 -0.1073
vn -0.8541 0.5078 -0.1122
vn -0.8024 0.5586 -0.2103
vn -0.7874 0.5684 -0.2383
vn 0.2652 -0.1283 0.9556
vn 0.1758 0.3436 0.9225
vn -0.5615 -0.6073 -0.5620
vn -0.4313 0.8635 0.2614
vn 0.1104 -0.8449 0.5235
vn 0.1141 -0.8504 0.5136
vn 0.0897 -0.8047 0.5868
vn 0.4272 0.9039 -0.0238
vn -0.7901 0.2416 0.5634
vn 0.2372 -0.1820 0.9542
vn 0.2489 -0.1468 0.9573
vn 0.3046 -0.1179 0.9452
vn 0.3564 -0.1062 0.9283
vn -0.9251 -0.2825 0.2538
vn 0.2666 -0.1040 0.9582
vn 0.2259 0.6658 0.7112
vn 0.3334 0.7138 0.6159
vn 0.4436 0.3066 -0.8421
vn 0.4529 0.1326 -0.8817
vn 0.1452 0.5406 0.8287
vn 0.1370 0.5413 0.8296
vn -0.0729 0.9223 -0.3796
vn -0.5908 0.6540 0.4724
vn -0.6331 -0.7027 -0.3247
vn -0.6643 -0.7028 -0.2547
vn -0.6715 -0.6954 -0.2561
vn -0.3967 0.8865 0.2381
vn 0.2098 0.8813 -0.4233
vn -0.0611 0.9200 -0.3871
vn -0.6842 -0.6947 -0.2220
vn -0.3675 -0.9257 -0.0890
vn 0.1475 0.9300 -0.3366
vn -0.1834 -0.3839 -0.9050
vn -0.2705 0.9276 0.2578
vn -0.8500 -0.1433 -0.5069
vn -0.5966 -0.7927 -0.1252
vn 0.1829 0.9219 -0.3416
vn 0.1102 -0.8027 0.5861
vn -0.9861 0.1633 0.0318
vn -0.5242 0.7291 0.4401
vn -0.4608 -0.0758 0.8843
vn -0.3803 -0.0760 0.9217
vn -0.4722 -0.0984 0.8760
vn 0.2077 -0.0722 0.9755
vn -0.7889 0.2469 0.5628
vn -0.8855 0.1844 0.4265
vn -0.9545 0.1025 0.2801
vn -0.9537 0.1168 0.2771
vn -0.9384 -0.1321 -0.3193
vn -0.8149 -0.0948 -0.5718
vn -0.8230 -0.5554 -0.1191
vn -0.8143 -0.5666 -0.1261
vn -0.8149 -0.5657 -0.1263
vn -0.0228 -0.0208 -0.9995
vn 0.0530 -0.0452 -0.9976
vn 0.0346 -0.0403 -0.9986
vn -0.5366 0.7451 0.3961
vn 0.1106 0.5939 0.7969
vn -0.1385 0.9307 -0.3386
vn 0.5080 -0.0972 0.8558
vn 0.6840 0.3026 -0.6638
vn 0.6094 0.3191 -0.7258
vn -0.5012 -0.0605 0.8632
vn -0.5125 -0.0811 0.8549
vn -0.4109 -0.1201 0.9038
vn 0.4526 0.1534 -0.8784
vn -0.0821 0.8548 -0.5124
vn 0.2559 -0.1574 0.9538
vn 0.2613 0.9551 0.1400
vn 0.1844 0.9708 0.1533
vn 0.2160 0.9671 0.1343
vn 0.3998 0.9161 -0.0312
vn 0.1890 0.3490 0.9179
vn -0.4727 0.8627 0.1799
vn -0.4700 0.8560 0.2153
vn 0.1366 0.5708 0.8097
vn 0.1162 -0.8036 0.5838
vn 0.1905 0.3394 0.9211
vn -0.8196 -0.5615 -0.1138
vn 0.2591 -0.1275 0.9574
vn 0.3216 0.7172 0.6182
vn -0.9523 -0.1073 -0.2858
vn -0.9788 -0.1793 -0.0995
vn -0.9771 -0.1902 -0.0955
vn -0.9726 -0.2210 -0.0724
vn -0.2662 -0.4720 0.8404
vn -0.2577 -0.4721 0.8430
vn -0.2748 -0.4719 0.8377
vn 0.2682 0.9535 0.1371
vn -0.7931 0.2436 0.5583
vn 0.1564 0.8825 -0.4435
vn 0.6254 0.2961 -0.7219
vn -0.9726 -0.2210 -0.0723
vn -0.9771 -0.1903 -0.0955
vn -0.9751 -0.2161 -0.0488
vn 0.2279 0.9649 0.1307
vn 0.2119 0.9693 0.1249
vn 0.0518 0.9109 -0.4094
vn 0.4359 0.1793 -0.8820
vn -0.9810 -0.0128 -0.1936
vn -0.9837 0.0011 -0.1801
vn -0.9856 -0.0026 -0.1691
vn 0.0579 0.8817 -0.4682
vn 0.1853 0.3445 0.9203
vn 0.1298 0.6108 0.7810
vn -0.9224 -0.1124 -0.3695
vn -0.8983 -0.0619 -0.4350
vn -0.7822 -0.6163 -0.0917
vn 0.6070 0.4127 -0.6792
vn -0.0750 0.8441 -0.5309
vn 0.2006 0.9187 -0.3402
vn -0.8978 0.1793 0.4023
vn -0.8306 -0.0050 -0.5569
vn -0.8665 0.0054 -0.4992
vn -0.8647 0.0049 -0.5023
vn -0.5045 0.8291 0.2412
vn -0.5200 0.8321 0.1927
vn 0.2014 0.1914 0.9606
vn 0.1981 0.1790 0.9637
vn 0.2260 0.2891 0.9302
vn -0.5215 -0.0352 0.8525
vn -0.5263 -0.0728 0.8472
vn -0.7821 0.2539 0.5690
vn 0.2327 0.9069 -0.3512
vn 0.4401 0.1781 -0.8801
vn -0.7214 -0.6659 -0.1900
vn -0.2492 -0.4721 0.8456
vn -0.4245 -0.1141 0.8982
vn -0.7711 -0.6306 -0.0880
vn -0.4709 0.8749 0.1129
vn -0.4453 0.8772 0.1793
vn -0.4584 0.8790 0.1312
vn 0.0709 0.9500 -0.3040
vn 0.6099 0.4257 -0.6684
vn -0.5630 -0.0349 0.8257
vn -0.5472 -0.0547 0.8352
vn 0.1390 0.5999 0.7879
vn -0.9987 -0.0142 -0.0490
vn -0.9993 -0.0209 -0.0299
vn -0.9955 0.0018 -0.0945
vn 0.3973 0.4514 0.7990
vn 0.2302 0.3819 0.8951
vn 0.3553 0.4351 0.8273
vn -0.5136 0.8497 0.1188
vn 0.1344 0.5809 0.8028
vn -0.8105 0.2463 0.5315
vn -0.1237 -0.0016 -0.9923
vn -0.9746 -0.2204 -0.0386
vn 0.1834 0.9338 -0.3073
vn -0.9720 -0.2321 -0.0359
vn 0.5104 -0.0955 0.8546
vn -0.4039 0.8834 0.2377
vn -0.7933 0.2454 0.5572
vn -0.6290 -0.7636 0.1456
vn -0.6258 -0.7493 0.2165
vn -0.6180 -0.7277 0.2975
vn 0.2978 -0.1386 0.9445
vn 0.0092 0.9290 -0.3699
vn -0.7575 0.2529 0.6019
vn -0.9935 0.0084 -0.1131
vn -0.6094 -0.7085 0.3559
vn 0.1971 0.3668 0.9092
vn -0.7231 -0.6650 -0.1867
vn -0.3832 0.8704 0.3091
vn -0.9240 0.2985 0.2391
vn -0.9290 0.2688 0.2543
vn -0.9340 0.2298 0.2735
vn -0.3160 -0.1336 0.9393
vn -0.5236 0.8383 0.1524
vn -0.1305 0.0023 -0.9914
vn -0.8008 0.2458 0.5462
vn -0.8136 0.2483 0.5257
vn -0.8155 0.2444 0.5247
vn -0.9159 0.3364 0.2191
vn 0.4591 0.8703 -0.1784
vn -0.6289 0.2719 0.7284
vn -0.6128 -0.0682 0.7873
vn -0.3621 0.9185 -0.1590
vn -0.4007 0.9045 -0.1461
vn -0.3240 0.9344 -0.1479
vn 0.2293 0.3029 0.9250
vn -0.8024 0.2485 0.5426
vn -0.5505 0.7917 -0.2649
vn -0.5222 0.7855 -0.3321
vn -0.4258 0.8365 -0.3448
vn -0.5352 -0.1146 0.8369
vn -0.8114 0.2611 0.5229
vn 0.1414 0.5855 0.7983
vn -0.4327 0.8455 -0.3128
vn -0.2596 0.0685 -0.9633
vn -0.1027 -0.0192 -0.9945
vn -0.9121 -0.3576 -0.2006
vn -0.7643 -0.0507 0.6429
vn 0.2530 -0.1573 0.9546
vn -0.2777 0.8305 0.4829
vn -0.2867 0.8544 0.4333
vn -0.4470 0.8390 -0.3104
vn -0.4733 0.8274 -0.3022
vn -0.4603 0.8257 -0.3262
vn -0.7495 0.0023 -0.6620
vn -0.9828 0.0184 -0.1837
vn -0.9829 0.0167 -0.1831
vn 0.2326 -0.1462 0.9615
vn -0.7919 0.2420 0.5607
vn -0.8005 0.2532 0.5432
vn -0.4716 -0.1392 0.8708
vn -0.3997 -0.1590 0.9028
vn 0.1452 0.5815 0.8005
vn -0.7933 0.2454 0.5571
vn -0.1569 0.9755 -0.1543
vn -0.3248 0.9353 -0.1407
vn -0.2036 0.8519 0.4825
vn -0.7916 0.2450 0.5598
vn -0.1682 0.9854 -0.0257
vn -0.7947 0.2445 0.5556
vn -0.5250 -0.0891 0.8464
vn -0.1589 0.0142 -0.9872
vn -0.3574 0.4037 -0.8422
vn -0.2064 0.0361 -0.9778
vn -0.2084 0.0269 -0.9777
vn -0.2005 0.0260 -0.9794
vn -0.7925 0.1953 -0.5778
vn -0.8195 0.2535 0.5139
vn -0.9309 0.2903 -0.2219
vn -0.4823 0.8200 -0.3082
vn -0.7198 0.0011 -0.6942
vn -0.5119 -0.1317 0.8489
vn -0.9405 0.2145 -0.2637
vn -0.9983 -0.0019 -0.0576
vn -0.1950 0.8615 0.4689
vn -0.4717 0.8167 -0.3325
vn -0.5115 0.4735 0.7171
vn -0.5224 0.4761 0.7074
vn -0.5160 0.4621 0.7212
vn -0.1617 0.0188 -0.9867
vn -0.4268 0.0503 -0.9030
vn -0.0828 0.9919 0.0968
vn -0.0803 0.9968 0.0033
vn -0.1987 0.0177 -0.9799
vn -0.9110 0.2640 -0.3169
vn -0.1465 -0.0023 -0.9892
vn -0.1590 0.0127 -0.9872
vn -0.4972 0.8176 -0.2904
vn -0.5383 -0.1083 0.8358
vn -0.5425 -0.1300 0.8299
vn -0.0657 0.9909 0.1171
vn -0.6611 0.7416 -0.1143
vn -0.7285 0.6831 -0.0516
vn -0.7178 0.6945 -0.0490
vn -0.9490 -0.0028 0.3152
vn -0.9886 -0.0068 -0.1501
vn -0.9904 -0.0004 -0.1385
vn -0.5217 -0.0847 0.8489
vn -0.0629 -0.0216 -0.9978
vn -0.1640 0.0129 -0.9864
vn -0.5164 0.4886 0.7033
vn -0.5050 0.4574 0.7320
vn -0.5087 0.4682 0.7225
vn -0.5108 0.4975 0.7011
vn -0.0230 0.9692 -0.2451
vn -0.0587 0.9893 -0.1334
vn -0.7460 0.6645 -0.0439
vn -0.9983 -0.0072 0.0575
vn -0.9948 -0.0169 0.1007
vn -0.5522 -0.1133 0.8259
vn -0.2045 0.0302 -0.9784
vn -0.7193 0.0011 -0.6947
vn -0.5051 0.8056 -0.3097
vn -0.7354 0.6766 0.0373
vn -0.7432 0.6687 0.0213
vn -0.7362 0.6766 -0.0123
vn -0.7712 0.6365 -0.0125
vn -0.9997 -0.0092 0.0228
vn -0.7505 0.6602 -0.0300
vn -0.5230 -0.0868 0.8479
vn -0.9782 -0.0204 -0.2066
vn -0.9895 -0.0172 -0.1433
vn -0.7304 0.6829 -0.0117
vn -0.2312 0.0409 -0.9720
vn -0.5164 0.7998 -0.3060
vn -0.3008 0.0549 -0.9521
vn -0.9845 -0.0188 0.1746
vn -0.5158 0.7940 -0.3217
vn -0.5427 -0.0943 0.8346
vn -0.3902 0.0611 -0.9187
vn -0.9918 -0.0244 -0.1253
vn -0.5694 -0.1255 0.8124
vn -0.5038 0.7987 -0.3291
vn -0.5080 0.4639 0.7258
vn -0.7695 0.6385 -0.0162
vn -0.7717 0.6360 0.0003
vn -0.7487 0.6615 -0.0436
vn -0.9905 -0.0095 -0.1370
vn -0.5079 0.4750 0.7186
vn -0.9769 -0.0372 0.2106
vn -0.7560 0.6532 -0.0411
vn -0.5164 0.4610 0.7217
vn -0.5669 -0.1137 0.8159
vn -0.9325 -0.0706 0.3541
vn -0.7612 0.6469 -0.0454
vn -0.5619 -0.0928 0.8220
vn -0.9927 0.0104 -0.1203
vn -0.9303 -0.0718 0.3598
vt 0.765691 0.886395
vt 0.835145 0.920332
vt 0.736539 0.913910
vt 0.859620 0.198323
vt 0.840389 0.152660
vt 0.890356 0.155181
vt 0.874680 0.194679
vt 0.803621 0.178221
vt 0.902328 0.136257
vt 0.930421 0.155289
vt 0.953065 0.185795
vt 0.750439 0.184315
vt 0.751570 0.150030
vt 0.841998 0.231221
vt 0.872029 0.128963
vt 0.876568 0.247574
vt 0.791048 0.236493
vt 0.948126 0.262884
vt 0.973027 0.223799
vt 0.913573 0.954836
vt 0.893914 0.965762
vt 0.951892 0.914113
vt 0.880333 0.978830
vt 0.842240 0.994976
vt 0.949159 0.923125
vt 0.826597 0.247646
vt 0.833065 0.119962
vt 0.966341 0.895846
vt 0.691578 0.188000
vt 0.673033 0.144482
vt 0.843107 0.961720
vt 0.745729 0.114135
vt 0.738946 0.220228
vt 0.913157 0.911647
vt 0.621146 0.182002
vt 0.621465 0.122984
vt 0.894391 0.290986
vt 0.432328 0.112575
vt 0.444241 0.084177
vt 0.479190 0.113491
vt 0.580950 0.153686
vt 0.580465 0.100174
vt 0.804820 0.972488
vt 0.810617 0.995000
vt 0.853266 0.261445
vt 0.771196 0.993638
vt 0.798523 0.112816
vt 0.523735 0.072358
vt 0.522634 0.129987
vt 0.383972 0.100896
vt 0.417551 0.109330
vt 0.405667 0.155021
vt 0.735414 0.098870
vt 0.883303 0.283119
vt 0.994819 0.322557
vt 0.919831 0.318761
vt 0.482361 0.137437
vt 0.795222 0.946693
vt 0.377516 0.091109
vt 0.980915 0.254703
vt 0.373765 0.113112
vt 0.482476 0.133258
vt 0.995000 0.834539
vt 0.772326 0.105042
vt 0.945316 0.856953
vt 0.396084 0.056154
vt 0.658205 0.196582
vt 0.358950 0.124463
vt 0.327804 0.100590
vt 0.764421 0.231210
vt 0.810964 0.286744
vt 0.740075 0.947507
vt 0.709656 0.990177
vt 0.365298 0.091950
vt 0.177784 0.123787
vt 0.126600 0.131883
vt 0.167997 0.095264
vt 0.228895 0.109554
vt 0.159546 0.133607
vt 0.229325 0.114816
vt 0.166176 0.070025
vt 0.126299 0.145944
vt 0.179643 0.132776
vt 0.234611 0.072273
vt 0.152210 0.153941
vt 0.284568 0.097204
vt 0.261566 0.116080
vt 0.087943 0.163615
vt 0.277732 0.094180
vt 0.248026 0.150186
vt 0.310434 0.135992
vt 0.855389 0.319184
vt 0.271153 0.126554
vt 0.362874 0.140180
vt 0.535831 0.155128
vt 0.957664 0.374758
vt 0.966233 0.391255
vt 0.837181 0.903213
vt 0.650146 0.086372
vt 0.333391 0.086319
vt 0.196247 0.160689
vt 0.927651 0.337787
vt 0.465353 0.171699
vt 0.700418 0.209934
vt 0.715323 0.217877
vt 0.992893 0.778908
vt 0.330451 0.078807
vt 0.098431 0.112792
vt 0.396203 0.189129
vt 0.947236 0.364307
vt 0.370471 0.165748
vt 0.953333 0.818322
vt 0.917477 0.852159
vt 0.366764 0.079268
vt 0.155537 0.193282
vt 0.872140 0.871557
vt 0.737690 0.269207
vt 0.656026 0.976102
vt 0.673275 0.992252
vt 0.117436 0.080048
vt 0.088084 0.145139
vt 0.358961 0.154592
vt 0.587328 0.058373
vt 0.338053 0.161445
vt 0.209921 0.192295
vt 0.459586 0.037044
vt 0.359964 0.076873
vt 0.631387 0.991672
vt 0.917286 0.387186
vt 0.694944 0.087928
vt 0.206931 0.030389
vt 0.970972 0.776984
vt 0.389416 0.048734
vt 0.929633 0.814434
vt 0.616125 0.185638
vt 0.861420 0.379748
vt 0.405311 0.037457
vt 0.572766 0.170546
vt 0.105256 0.189245
vt 0.908516 0.393141
vt 0.894043 0.813729
vt 0.345896 0.069880
vt 0.516571 0.211226
vt 0.794884 0.321995
vt 0.751642 0.309883
vt 0.613393 0.218433
vt 0.660446 0.077476
vt 0.081665 0.166498
vt 0.915633 0.417241
vt 0.943897 0.773079
vt 0.673228 0.926446
vt 0.286720 0.038278
vt 0.866096 0.834088
vt 0.627955 0.069775
vt 0.336189 0.057874
vt 0.161710 0.038417
vt 0.379837 0.211467
vt 0.824940 0.370077
vt 0.831546 0.885707
vt 0.594552 0.989207
vt 0.357401 0.021587
vt 0.345378 0.051343
vt 0.068632 0.076642
vt 0.067747 0.137265
vt 0.963359 0.746453
vt 0.941024 0.767195
vt 0.277217 0.185348
vt 0.413517 0.009867
vt 0.418548 0.212814
vt 0.160279 0.225690
vt 0.252847 0.211968
vt 0.861113 0.423387
vt 0.358013 0.186186
vt 0.115849 0.021541
vt 0.868072 0.388464
vt 0.852536 0.875553
vt 0.331726 0.180688
vt 0.560170 0.989617
vt 0.516500 0.989856
vt 0.538991 0.987388
vt 0.555970 0.049179
vt 0.908127 0.746674
vt 0.392564 0.235742
vt 0.332979 0.228813
vt 0.488298 0.031038
vt 0.831532 0.878006
vt 0.328988 0.043058
vt 0.159750 0.028897
vt 0.425629 0.010950
vt 0.248201 0.019569
vt 0.860912 0.426615
vt 0.921689 0.722145
vt 0.832960 0.845445
vt 0.215323 0.246727
vt 0.078054 0.028064
vt 0.232159 0.237455
vt 0.913810 0.772575
vt 0.831985 0.864202
vt 0.820295 0.867975
vt 0.329014 0.029735
vt 0.123578 0.231690
vt 0.070981 0.171486
vt 0.797914 0.884834
vt 0.458377 0.019739
vt 0.662440 0.268313
vt 0.598600 0.935943
vt 0.516881 0.036605
vt 0.017475 0.097343
vt 0.145830 0.249537
vt 0.872108 0.781976
vt 0.146766 0.921993
vt 0.082637 0.873969
vt 0.167610 0.913174
vt 0.443923 0.961732
vt 0.483090 0.989880
vt 0.440201 0.989434
vt 0.337083 0.027372
vt 0.799187 0.364270
vt 0.829990 0.794275
vt 0.028632 0.155117
vt 0.414493 0.297763
vt 0.774100 0.353060
vt 0.775106 0.356633
vt 0.318220 0.204639
vt 0.403363 0.246537
vt 0.809829 0.371113
vt 0.014968 0.145854
vt 0.418341 0.270994
vt 0.324146 0.012222
vt 0.119772 0.006304
vt 0.307558 0.206771
vt 0.878897 0.773265
vt 0.320673 0.980993
vt 0.250507 0.966552
vt 0.274124 0.926631
vt 0.155224 0.888507
vt 0.767541 0.844499
vt 0.492258 0.948192
vt 0.195096 0.928361
vt 0.724653 0.339157
vt 0.810346 0.424982
vt 0.215282 0.946394
vt 0.723474 0.887532
vt 0.474677 0.239857
vt 0.678415 0.325147
vt 0.097332 0.839274
vt 0.372997 0.987165
vt 0.334066 0.984087
vt 0.343168 0.965366
vt 0.101499 0.011271
vt 0.043185 0.053506
vt 0.244492 0.241401
vt 0.833314 0.427457
vt 0.899035 0.712511
vt 0.831226 0.817862
vt 0.029283 0.176409
vt 0.442084 0.235407
vt 0.443326 0.232421
vt 0.312027 0.932967
vt 0.120568 0.245830
vt 0.743399 0.348561
vt 0.656520 0.889092
vt 0.389802 0.959416
vt 0.231824 0.938262
vt 0.220632 0.964038
vt 0.588196 0.257259
vt 0.327274 0.931864
vt 0.764997 0.385998
vt 0.520484 0.923978
vt 0.087604 0.005000
vt 0.138217 0.849047
vt 0.038956 0.041858
vt 0.078763 0.815518
vt 0.084763 0.816427
vt 0.584126 0.913027
vt 0.847540 0.776357
vt 0.768837 0.807043
vt 0.829086 0.740456
vt 0.005000 0.110681
vt 0.006173 0.161685
vt 0.800782 0.428225
vt 0.689953 0.887204
vt 0.234782 0.908185
vt 0.147046 0.270013
vt 0.300487 0.231717
vt 0.434410 0.299352
vt 0.465683 0.292219
vt 0.829250 0.759430
vt 0.346297 0.935659
vt 0.199909 0.895085
vt 0.871519 0.701256
vt 0.466357 0.252553
vt 0.828434 0.776893
vt 0.075580 0.655886
vt 0.063228 0.653243
vt 0.068889 0.651989
vt 0.011299 0.157261
vt 0.375283 0.346361
vt 0.453571 0.395703
vt 0.102299 0.813327
vt 0.093361 0.792948
vt 0.072059 0.644192
vt 0.193865 0.264496
vt 0.463112 0.924327
vt 0.119250 0.257802
vt 0.288959 0.247867
vt 0.550728 0.275687
vt 0.468832 0.260762
vt 0.619921 0.303351
vt 0.026718 0.183393
vt 0.685385 0.331169
vt 0.247218 0.907572
vt 0.057893 0.218454
vt 0.503971 0.256739
vt 0.773325 0.427784
vt 0.084383 0.674570
vt 0.083144 0.644430
vt 0.093309 0.628472
vt 0.104977 0.794193
vt 0.055815 0.767750
vt 0.036995 0.705756
vt 0.065559 0.730938
vt 0.399583 0.411945
vt 0.458191 0.354802
vt 0.755188 0.403587
vt 0.678488 0.828884
vt 0.607804 0.891171
vt 0.408232 0.900523
vt 0.151250 0.279937
vt 0.239179 0.263767
vt 0.276408 0.262934
vt 0.125550 0.592863
vt 0.108857 0.595735
vt 0.086137 0.709480
vt 0.163861 0.273631
vt 0.190084 0.830134
vt 0.116204 0.642939
vt 0.365369 0.413889
vt 0.827409 0.703852
vt 0.847845 0.693098
vt 0.787513 0.777960
vt 0.567087 0.892131
vt 0.119666 0.637399
vt 0.115120 0.259546
vt 0.140190 0.552765
vt 0.333918 0.904254
vt 0.170856 0.556615
vt 0.493193 0.277304
vt 0.489410 0.895735
vt 0.317896 0.899828
vt 0.176485 0.526655
vt 0.161324 0.527658
vt 0.150733 0.522753
vt 0.683972 0.362888
vt 0.530963 0.893732
vt 0.167200 0.808787
vt 0.748288 0.425796
vt 0.824035 0.729151
vt 0.608808 0.865480
vt 0.296302 0.303683
vt 0.269980 0.885889
vt 0.174488 0.284961
vt 0.224305 0.278737
vt 0.220607 0.860393
vt 0.502924 0.289068
vt 0.140712 0.793203
vt 0.103003 0.707226
vt 0.825547 0.686104
vt 0.443754 0.903453
vt 0.272673 0.266808
vt 0.254504 0.881590
vt 0.698900 0.394892
vt 0.189631 0.292286
vt 0.651014 0.318730
vt 0.144452 0.675554
vt 0.174960 0.550376
vt 0.471444 0.387280
vt 0.354813 0.902348
vt 0.172744 0.604824
vt 0.291956 0.305092
vt 0.138876 0.635515
vt 0.760856 0.759659
vt 0.610859 0.304224
vt 0.263950 0.880215
vt 0.107379 0.765843
vt 0.794798 0.683417
vt 0.115774 0.768171
vt 0.506201 0.316652
vt 0.258949 0.282152
vt 0.253836 0.850880
vt 0.550550 0.304660
vt 0.382143 0.900200
vt 0.451129 0.895449
vt 0.306745 0.867718
vt 0.165662 0.637602
vt 0.195512 0.540388
vt 0.433711 0.416261
vt 0.717174 0.420424
vt 0.174825 0.630172
vt 0.477354 0.392714
vt 0.705621 0.785798
vt 0.587500 0.835238
vt 0.354442 0.885846
vt 0.236249 0.299885
vt 0.735078 0.780080
vt 0.370022 0.422731
vt 0.522561 0.853566
vt 0.275405 0.863349
vt 0.112589 0.745824
vt 0.473392 0.415323
vt 0.328523 0.874690
vt 0.303096 0.330260
vt 0.322018 0.379856
vt 0.180221 0.592611
vt 0.205602 0.306597
vt 0.762288 0.711213
vt 0.502624 0.385351
vt 0.525326 0.309758
vt 0.432922 0.453654
vt 0.284157 0.863275
vt 0.187636 0.661374
vt 0.387094 0.457831
vt 0.122481 0.732815
vt 0.310267 0.356445
vt 0.704149 0.782314
vt 0.344410 0.418508
vt 0.534832 0.351421
vt 0.222081 0.567457
vt 0.514490 0.388462
vt 0.589450 0.342477
vt 0.181298 0.636340
vt 0.225035 0.553364
vt 0.754880 0.680313
vt 0.368442 0.441731
vt 0.454273 0.843042
vt 0.172517 0.700504
vt 0.310389 0.856565
vt 0.489726 0.425664
vt 0.681552 0.746759
vt 0.564610 0.350671
vt 0.388693 0.856735
vt 0.677048 0.412413
vt 0.301437 0.843584
vt 0.127629 0.725735
vt 0.141519 0.713001
vt 0.520142 0.429882
vt 0.308505 0.846348
vt 0.179756 0.784676
vt 0.190455 0.657437
vt 0.344806 0.425171
vt 0.627857 0.370979
vt 0.665169 0.786956
vt 0.208906 0.609254
vt 0.227628 0.796265
vt 0.473411 0.464438
vt 0.201840 0.634413
vt 0.553718 0.338075
vt 0.703583 0.716183
vt 0.288742 0.840734
vt 0.266319 0.389721
vt 0.431870 0.480586
vt 0.219865 0.308692
vt 0.359150 0.856492
vt 0.205749 0.656439
vt 0.325462 0.433120
vt 0.544492 0.331090
vt 0.595404 0.795942
vt 0.173223 0.752222
vt 0.372355 0.458082
vt 0.206343 0.692234
vt 0.214814 0.611065
vt 0.230697 0.574793
vt 0.240358 0.554153
vt 0.246969 0.349034
vt 0.640618 0.405062
vt 0.203423 0.695942
vt 0.215715 0.669712
vt 0.493721 0.450795
vt 0.227420 0.611773
vt 0.253607 0.585887
vt 0.131475 0.730358
vt 0.407673 0.477593
vt 0.545415 0.382670
vt 0.213199 0.679944
vt 0.320173 0.827091
vt 0.166968 0.733815
vt 0.296214 0.809278
vt 0.554632 0.408504
vt 0.355699 0.831492
vt 0.229031 0.789965
vt 0.215573 0.710874
vt 0.268469 0.609224
vt 0.718210 0.677898
vt 0.594031 0.792350
vt 0.457932 0.806933
vt 0.353518 0.821969
vt 0.222551 0.706268
vt 0.372068 0.477430
vt 0.263567 0.584637
vt 0.571833 0.364240
vt 0.257182 0.641589
vt 0.216180 0.724654
vt 0.302384 0.444615
vt 0.496539 0.467200
vt 0.573101 0.360353
vt 0.202701 0.740596
vt 0.302412 0.458421
vt 0.581019 0.370749
vt 0.182708 0.746260
vt 0.207093 0.375884
vt 0.433183 0.492624
vt 0.530476 0.799096
vt 0.225528 0.704093
vt 0.589535 0.748886
vt 0.472335 0.485731
vt 0.503279 0.475247
vt 0.539602 0.448565
vt 0.568153 0.382917
vt 0.366087 0.800801
vt 0.611631 0.397747
vt 0.411647 0.803380
vt 0.388433 0.804397
vt 0.226086 0.747155
vt 0.388753 0.792788
vt 0.231917 0.733698
vt 0.282844 0.680503
vt 0.317735 0.549752
vt 0.686869 0.676587
vt 0.590996 0.384684
vt 0.266002 0.781178
vt 0.303720 0.568683
vt 0.230345 0.767707
vt 0.598565 0.486593
vt 0.623555 0.506592
vt 0.589860 0.508094
vt 0.574726 0.445428
vt 0.283550 0.728335
vt 0.409034 0.505778
vt 0.466912 0.801284
vt 0.321579 0.489829
vt 0.596440 0.394800
vt 0.590639 0.526066
vt 0.642791 0.697394
vt 0.243498 0.759625
vt 0.235582 0.406042
vt 0.548914 0.477442
vt 0.664977 0.678773
vt 0.638836 0.527508
vt 0.411479 0.794990
vt 0.493237 0.766346
vt 0.444277 0.784267
vt 0.587309 0.421558
vt 0.668414 0.674752
vt 0.578523 0.492378
vt 0.286391 0.469777
vt 0.514595 0.758759
vt 0.660380 0.638809
vt 0.360275 0.574633
vt 0.470002 0.774839
vt 0.380049 0.518359
vt 0.655822 0.675052
vt 0.266199 0.742773
vt 0.249676 0.431571
vt 0.634053 0.572789
vt 0.600227 0.554433
vt 0.647634 0.605383
vt 0.596649 0.579732
vt 0.438353 0.754435
vt 0.597362 0.722015
vt 0.622849 0.709555
vt 0.378859 0.530971
vt 0.386064 0.519356
vt 0.560268 0.514062
vt 0.548208 0.504117
vt 0.553657 0.741834
vt 0.576360 0.731251
vt 0.327624 0.636515
vt 0.621862 0.674367
vt 0.610177 0.714636
vt 0.526531 0.752752
vt 0.609827 0.629384
vt 0.478000 0.729502
vt 0.438801 0.503761
vt 0.316735 0.707692
vt 0.589514 0.578985
vt 0.589504 0.603931
vt 0.492887 0.535940
vt 0.479985 0.502878
vt 0.540997 0.746375
vt 0.556167 0.551391
vt 0.364193 0.604126
vt 0.447704 0.532760
vt 0.498757 0.617923
vt 0.337881 0.685265
vt 0.527092 0.556977
vt 0.549354 0.541946
vt 0.579909 0.614510
vt 0.417621 0.570666
vt 0.589724 0.673914
vt 0.513410 0.701401
vt 0.572605 0.642951
vt 0.532507 0.559658
vt 0.407442 0.638021
vt 0.524835 0.588298
vt 0.373604 0.656621
vt 0.527372 0.689245
vt 0.563530 0.669370
vt 0.411119 0.627484
vt 0.555728 0.667429
vt 0.463269 0.568054
vt 0.494883 0.579002
vt 0.534256 0.647951
vt 0.471629 0.589048
vt 0.449435 0.603768
s 1
f 201/1/1 103/2/2 205/3/3
f 18/4/4 31/5/5 22/6/6
f 25/7/7 18/4/8 22/6/9
f 31/5/5 18/4/4 19/8/10
f 25/7/7 22/6/9 26/9/11
f 26/9/12 28/10/13 25/7/7
f 25/7/7 28/10/13 30/11/14
f 19/8/10 17/12/15 31/5/5
f 31/5/5 17/12/15 23/13/16
f 19/8/10 18/4/4 24/14/17
f 27/15/18 22/6/6 31/5/5
f 22/6/6 27/15/18 26/9/19
f 18/4/8 25/7/7 24/14/20
f 24/14/20 25/7/7 33/16/21
f 49/17/22 19/8/10 24/14/17
f 16/18/23 30/11/14 29/19/24
f 30/20/25 34/21/26 51/22/27
f 34/21/26 28/23/28 26/24/29
f 33/16/21 25/7/7 16/18/23
f 29/25/30 30/20/25 51/22/27
f 25/7/7 30/11/14 16/18/23
f 30/20/25 28/23/28 34/21/26
f 49/17/22 24/14/17 59/26/31
f 27/15/18 31/5/5 35/27/32
f 29/25/30 51/22/27 38/28/33
f 46/29/34 32/30/35 23/13/16
f 26/24/29 36/31/36 34/21/26
f 40/32/37 23/13/16 32/30/35
f 46/29/34 23/13/16 17/12/15
f 17/12/15 19/8/10 89/33/38
f 51/22/27 34/21/26 39/34/39
f 32/30/35 37/35/40 57/36/41
f 33/16/21 16/18/23 41/37/42
f 45/38/43 48/39/44 44/40/45
f 43/41/46 62/42/47 57/36/41
f 34/21/26 36/31/36 39/34/39
f 52/43/48 26/24/49 27/44/50
f 24/14/20 33/16/21 53/45/51
f 27/44/50 35/46/52 52/43/48
f 35/27/32 31/5/5 50/47/53
f 59/26/54 24/14/20 53/45/51
f 31/5/5 23/13/16 40/32/37
f 47/48/55 42/49/56 44/40/45
f 36/31/57 26/24/49 52/43/48
f 63/50/58 55/51/59 67/52/60
f 40/32/37 32/30/35 54/53/61
f 33/16/21 58/54/62 53/45/51
f 29/19/24 56/55/63 16/18/23
f 33/16/21 41/37/42 58/54/62
f 41/37/42 16/18/23 60/56/64
f 50/47/53 31/5/5 40/32/37
s 0
f 108/57/65 55/51/65 45/38/65
s 1
f 19/8/10 49/17/22 89/33/38
f 36/31/57 52/43/48 72/58/66
s 0
f 45/38/67 55/51/67 96/59/67
s 1
f 29/19/24 38/60/68 56/55/63
f 54/53/61 32/30/35 57/36/41
f 62/42/47 42/49/56 47/48/55
f 48/39/44 45/38/43 96/59/69
f 63/50/58 67/52/60 65/61/70
f 103/2/71 39/34/39 36/31/36
f 45/38/43 44/40/45 100/62/72
f 38/28/33 51/22/27 56/63/73
f 60/56/64 16/18/23 56/55/63
s 0
f 35/27/74 50/47/74 64/64/74
s 1
f 107/65/75 56/63/76 51/22/27
f 109/66/77 48/39/44 96/59/69
f 62/42/47 43/41/46 42/49/56
f 37/35/40 32/30/35 106/67/78
f 108/57/79 45/38/80 100/62/81
s 0
f 55/51/82 63/50/82 96/59/82
s 1
f 65/61/83 15/68/84 75/69/85
f 100/62/72 44/40/45 42/49/56
f 89/33/38 46/29/34 17/12/15
f 49/17/86 59/26/87 74/70/88
f 66/71/89 59/26/90 53/45/91
f 107/65/75 51/22/27 39/34/39
f 55/51/59 108/57/92 67/52/60
f 32/30/35 46/29/34 106/67/78
f 52/43/48 35/46/52 122/72/93
f 64/73/94 122/72/93 35/46/52
f 36/31/57 72/58/66 103/2/2
f 65/61/83 75/69/85 110/74/95
f 79/75/96 77/76/97 87/77/98
f 79/75/99 87/77/100 78/78/101
f 77/76/102 79/75/103 80/79/104
f 79/75/105 78/78/106 82/80/107
f 136/81/108 78/78/101 87/77/100
f 83/82/109 77/76/102 80/79/104
f 79/75/110 82/80/111 81/83/112
f 84/84/113 78/78/101 136/81/108
f 80/79/104 79/75/103 81/83/114
f 85/85/115 83/82/116 80/79/117
f 85/85/115 80/79/117 81/83/118
f 76/86/119 82/80/107 78/78/106
f 81/83/112 82/80/111 97/87/120
f 82/80/111 76/86/121 97/87/120
f 83/82/116 85/85/115 118/88/122
f 76/86/119 78/78/106 86/89/123
f 88/90/124 81/83/125 97/87/126
f 78/78/101 84/84/113 86/89/127
f 43/41/46 57/36/41 37/35/40
f 75/69/85 15/68/84 14/91/128
f 89/33/129 49/17/86 74/70/88
f 66/71/89 53/45/91 94/92/130
f 97/87/126 75/69/131 104/93/132
f 65/61/133 99/94/134 15/68/135
f 43/41/46 135/95/136 42/49/56
f 60/56/64 56/55/63 93/96/137
f 93/96/137 56/55/63 115/97/138
f 107/65/75 39/34/39 102/98/139
f 64/64/140 50/47/53 40/32/37
f 69/99/141 57/36/41 62/42/47
f 63/50/142 65/61/142 96/59/142
f 53/45/91 58/54/143 94/92/130
f 64/64/140 40/32/37 54/53/61
f 111/100/144 97/87/120 76/86/121
f 42/49/56 135/95/136 100/62/72
f 81/83/125 88/90/124 98/101/145
f 88/90/124 97/87/126 104/93/132
f 101/102/146 60/56/147 93/96/148
s 0
f 96/59/149 65/61/149 110/74/149
s 1
f 105/103/150 67/52/60 108/57/151
f 52/43/48 122/72/93 72/58/66
f 75/69/152 97/87/126 111/100/153
f 119/104/154 46/29/34 89/33/38
f 120/105/155 89/33/129 74/70/88
f 115/106/156 56/63/76 107/65/75
f 111/100/144 76/86/121 125/107/157
f 125/107/158 76/86/119 86/89/123
f 87/77/98 77/76/97 117/108/159
f 65/61/70 67/52/60 151/109/160
f 58/54/143 41/37/161 101/102/146
f 101/102/146 93/96/148 114/110/162
f 151/109/160 126/111/163 65/61/70
f 41/37/161 60/56/164 101/102/146
f 47/48/55 44/40/45 48/39/44
f 121/112/165 107/65/75 116/113/166
f 70/114/167 96/59/69 110/74/168
s 0
f 110/74/169 75/69/169 111/100/169
s 1
f 118/88/122 85/85/115 113/115/170
f 81/83/118 98/101/171 85/85/115
f 135/95/172 108/57/79 100/62/81
f 107/65/75 123/116/173 116/113/166
f 74/70/174 59/26/175 197/117/176
f 94/92/130 58/54/143 101/102/146
f 140/118/177 64/73/94 54/119/178
f 54/53/61 57/36/41 69/99/141
f 87/77/98 117/108/159 133/120/179
f 77/76/97 134/121/180 117/108/159
f 134/121/181 77/76/102 83/82/109
f 65/61/70 126/111/163 130/122/182
f 119/104/183 89/33/129 120/105/155
f 107/65/75 102/98/139 123/116/173
f 109/66/77 96/59/69 70/114/167
f 75/69/131 14/91/184 104/93/132
f 99/94/185 65/61/70 130/122/182
f 115/106/156 107/65/75 121/112/165
f 69/99/141 62/42/47 127/123/186
f 14/91/128 15/68/84 182/124/187
f 197/117/176 59/26/175 66/71/188
f 134/121/181 83/82/189 118/88/190
f 113/115/170 85/85/115 164/125/191
f 47/48/55 48/39/44 124/126/192
f 110/74/168 132/127/193 70/114/167
s 0
f 132/127/194 110/74/194 111/100/194
s 1
f 136/81/195 87/77/98 133/120/179
f 54/119/178 131/128/196 140/118/177
f 127/123/186 62/42/47 47/48/55
f 46/29/34 119/104/154 106/67/78
f 138/129/197 93/96/148 115/97/198
f 125/107/199 86/89/127 84/84/113
f 85/85/115 98/101/171 164/125/191
f 138/129/197 114/110/162 93/96/148
f 131/130/200 54/53/61 69/99/141
f 120/105/155 74/70/174 197/117/176
f 84/84/113 136/81/108 142/131/201
f 101/102/146 114/110/162 138/129/197
f 174/132/202 115/106/203 121/112/204
f 102/98/139 39/34/39 103/2/71
f 141/133/205 109/66/206 70/114/207
f 145/134/208 121/112/204 116/113/209
f 99/94/134 130/122/210 15/68/135
f 37/35/211 106/67/212 143/135/213
f 101/102/146 138/129/197 144/136/214
f 154/137/215 109/66/206 141/133/205
f 132/127/216 141/133/205 70/114/207
f 149/138/217 135/95/218 37/35/211
f 37/35/40 135/95/136 43/41/46
f 124/126/192 48/39/44 109/66/77
f 198/139/219 118/88/122 113/115/170
f 138/129/220 115/97/221 161/140/222
f 145/134/208 116/113/209 148/141/223
f 132/127/224 111/100/225 150/142/226
f 15/68/135 130/122/210 182/124/227
f 105/103/150 108/57/151 185/143/228
f 108/57/151 135/95/229 185/143/228
f 149/138/230 185/143/228 135/95/229
f 149/138/217 37/35/211 143/135/213
f 66/71/188 160/144/231 153/145/232
f 150/142/233 111/100/234 125/107/235
f 169/146/236 143/135/237 106/67/238
f 120/105/155 106/67/238 119/104/183
f 101/102/146 144/136/214 94/92/130
f 103/2/2 72/58/66 205/3/3
f 131/130/200 69/99/141 159/147/239
s 0
f 134/121/240 118/88/240 171/148/240
s 1
f 161/140/222 115/97/241 152/149/242
f 174/132/202 121/112/204 170/150/243
f 64/73/94 172/151/244 122/72/93
f 156/152/245 84/84/113 142/131/201
f 98/101/145 88/90/124 164/125/246
f 169/146/236 149/138/230 143/135/237
f 170/150/243 121/112/204 145/134/208
f 148/141/223 116/113/209 195/153/247
f 69/99/141 127/123/186 168/154/248
f 125/107/199 84/84/113 156/152/245
f 195/153/247 116/113/209 123/116/249
f 155/155/250 125/107/199 156/152/245
f 136/81/108 163/156/251 142/131/201
f 130/122/252 126/111/253 192/157/254
f 160/144/255 66/71/89 94/92/130
f 64/73/94 140/118/177 172/151/244
f 155/155/256 150/142/233 125/107/235
f 163/156/257 136/81/195 133/120/179
f 160/144/255 94/92/130 199/158/258
f 176/159/259 123/116/173 102/98/139
f 140/118/177 131/128/196 159/160/260
f 168/154/248 159/147/239 69/99/141
f 211/161/261 141/133/262 132/127/224
f 132/127/224 150/142/226 187/162/263
f 133/120/264 117/108/265 165/163/266
f 117/108/265 134/121/267 165/163/266
f 134/121/267 157/164/268 165/163/266
f 192/157/254 126/111/253 151/109/269
f 152/165/270 115/106/271 167/166/272
s 0
f 115/106/273 174/132/273 167/166/273
s 1
f 14/91/128 182/124/187 178/167/274
f 169/146/236 106/67/238 120/105/155
f 205/3/3 72/58/66 122/72/93
f 208/168/275 154/137/276 141/133/277
f 241/169/278 151/109/160 67/52/60
f 134/121/279 171/148/280 157/164/281
f 198/139/219 113/115/170 175/170/282
f 196/171/283 164/125/246 88/90/124
f 166/172/284 161/140/222 152/149/242
f 182/124/285 130/122/252 184/173/286
f 184/173/286 130/122/252 192/157/254
f 133/120/264 165/163/266 181/174/287
f 161/140/222 166/172/284 200/175/288
f 67/52/60 105/103/150 241/169/278
f 94/92/130 144/136/214 199/158/258
f 123/116/249 176/159/289 179/176/290
f 201/1/1 102/98/291 103/2/2
f 197/117/176 66/71/188 153/145/232
f 174/132/292 170/150/293 167/166/294
f 123/116/249 179/176/290 195/153/247
f 124/126/192 109/66/77 154/137/295
f 208/168/296 141/133/262 211/161/261
f 182/124/297 184/173/298 173/177/299
f 168/178/300 127/179/301 180/180/302
f 177/181/303 127/123/186 47/48/55
f 144/136/304 138/129/220 161/140/222
f 152/165/305 167/166/272 193/182/306
f 175/170/282 113/115/170 164/125/191
f 168/178/300 180/180/302 159/160/307
f 104/93/132 14/91/184 178/167/308
f 184/173/309 192/157/310 220/183/311
f 185/143/228 149/138/230 169/146/236
f 171/148/312 118/88/313 198/139/314
f 173/177/299 184/173/298 215/184/315
f 176/159/316 102/98/291 201/1/1
f 177/181/303 47/48/55 228/185/317
f 211/161/261 132/127/224 187/162/263
f 187/162/318 150/142/233 155/155/256
f 179/176/290 176/159/289 191/186/319
f 47/48/55 124/126/192 228/185/317
f 156/152/245 204/187/320 155/155/250
f 209/188/321 163/156/322 133/120/264
f 88/90/124 178/167/308 196/171/283
f 88/90/124 104/93/132 178/167/308
f 154/137/276 208/168/275 202/189/323
f 142/131/201 203/190/324 156/152/245
f 142/131/201 163/156/325 209/188/326
f 144/136/304 161/140/222 200/175/288
f 166/172/284 152/149/242 194/191/327
f 209/188/321 133/120/264 181/174/287
f 194/192/328 152/165/305 193/182/306
f 207/193/329 179/176/290 191/186/319
f 175/170/282 164/125/191 311/194/330
f 142/131/201 209/188/326 203/190/324
f 213/195/331 181/174/287 165/163/266
f 164/125/246 196/171/283 299/196/332
f 184/173/298 220/183/311 215/184/315
f 105/103/150 185/143/228 241/169/278
f 237/197/333 170/150/243 145/134/208
f 210/198/334 207/193/335 191/186/336
f 191/186/336 176/159/337 234/199/338
f 187/162/318 155/155/256 230/200/339
f 231/201/340 190/202/341 171/148/342
f 179/176/290 207/193/329 195/153/247
f 176/159/337 201/1/343 216/203/344
f 124/126/192 154/137/295 219/204/345
f 219/204/345 154/137/295 202/189/346
f 171/148/312 198/139/314 231/201/347
f 255/205/348 169/146/236 120/105/155
f 238/206/349 140/118/177 159/160/260
f 225/207/350 177/181/351 228/185/317
f 217/208/352 165/163/266 157/164/268
f 198/139/219 175/170/282 290/209/353
f 192/157/254 151/109/269 241/169/354
f 167/166/294 170/150/293 237/197/355
f 205/3/3 122/72/93 172/151/244
f 238/206/349 172/151/244 140/118/177
s 0
f 155/155/356 204/187/356 230/200/356
s 1
f 204/187/320 156/152/245 203/190/324
f 237/197/333 145/134/208 243/210/357
f 145/134/208 148/141/223 243/210/357
f 176/159/337 216/203/344 234/199/338
f 203/211/324 209/212/326 223/213/358
f 218/214/359 177/215/360 225/216/361
f 229/217/362 187/162/318 230/200/339
f 160/144/255 199/158/258 226/218/363
f 148/141/223 195/153/247 233/219/364
f 157/164/281 171/148/365 235/220/366
f 198/139/367 290/209/353 231/201/368
f 220/183/311 247/221/369 215/184/315
f 120/105/155 197/117/176 255/205/348
f 153/145/232 160/144/231 242/222/370
f 160/144/255 245/223/371 242/222/372
f 245/223/371 160/144/255 226/218/363
f 210/198/334 191/186/336 234/199/338
f 311/194/330 164/125/191 299/196/373
f 177/215/360 218/214/359 127/179/301
f 230/200/374 204/187/320 203/190/324
f 232/224/375 173/177/299 215/184/315
f 244/225/376 220/183/311 192/157/310
f 239/226/377 144/136/304 200/175/288
f 211/161/261 187/162/263 229/217/378
f 235/220/366 214/227/379 157/164/281
f 247/221/369 220/183/311 248/228/380
f 248/228/380 220/183/311 244/225/376
f 199/158/381 144/136/304 239/226/377
f 124/126/192 219/204/345 228/185/317
f 230/200/374 203/190/324 278/229/382
s 0
f 209/188/383 181/174/383 13/230/383
s 1
f 171/148/384 190/202/385 235/220/386
f 178/167/274 182/124/187 260/231/387
f 244/225/388 192/157/254 241/169/354
f 167/166/294 237/197/355 258/232/389
f 173/177/390 260/231/387 182/124/187
f 207/193/335 210/198/334 234/199/338
f 208/233/391 211/234/392 312/235/393
f 223/213/358 209/212/326 281/236/394
f 234/199/338 216/203/344 276/237/395
f 276/237/395 216/203/344 201/1/343
f 246/238/396 127/179/301 218/214/359
f 240/239/397 203/211/324 223/213/358
f 153/145/232 242/222/370 267/240/398
f 253/241/399 200/175/288 166/172/284
f 278/242/382 203/211/324 240/239/397
f 157/164/268 214/227/400 217/208/352
f 239/226/377 226/218/401 199/158/381
f 193/182/306 167/166/272 258/232/402
f 205/3/3 172/151/244 270/243/403
f 180/180/302 127/179/301 246/238/396
f 241/169/278 185/143/228 292/244/404
f 257/245/405 197/117/176 153/145/232
f 239/226/377 245/223/406 226/218/401
f 228/185/317 219/204/345 225/207/350
f 281/236/394 209/212/326 13/246/407
f 195/153/247 207/193/329 233/219/408
f 219/247/409 202/248/410 264/249/411
f 213/195/331 268/250/412 181/174/287
f 252/251/413 165/163/266 217/208/352
f 288/252/414 178/167/274 260/231/387
f 256/253/415 166/172/284 194/191/327
f 194/192/328 193/182/306 256/254/416
f 237/197/333 243/210/357 258/232/417
f 213/195/331 165/163/266 252/251/413
f 244/225/388 241/169/354 248/228/418
f 233/219/364 243/210/357 148/141/223
s 0
f 261/255/419 233/219/419 207/193/419
s 1
f 207/193/335 234/199/338 276/237/395
f 266/256/420 235/220/386 190/202/385
f 249/257/421 241/169/422 284/258/423
f 253/241/399 166/172/284 256/253/415
f 159/160/260 180/180/302 238/206/349
f 208/233/391 312/235/393 250/259/424
f 241/169/425 292/244/426 284/258/427
f 255/205/348 197/117/176 257/245/405
f 190/202/341 231/201/340 269/260/428
f 178/167/274 288/252/414 196/171/429
f 260/231/430 173/177/431 232/224/432
f 11/261/433 242/222/434 245/223/435
f 270/243/403 172/151/244 327/262/436
f 201/1/1 205/3/3 270/243/403
f 225/216/361 219/247/409 300/263/437
f 273/264/438 211/234/392 229/265/439
f 248/228/418 241/169/354 249/257/440
f 185/143/228 169/146/236 279/266/441
f 279/266/441 169/146/236 255/205/348
f 328/267/442 208/233/391 250/259/424
f 293/268/443 239/226/377 200/175/288
f 218/214/359 225/216/361 300/263/437
f 300/263/437 219/247/409 264/249/411
f 208/233/391 328/267/442 202/248/444
s 0
f 13/230/445 181/174/445 268/250/445
s 1
f 261/255/446 207/193/447 276/237/395
f 277/269/448 180/180/302 246/238/396
s 0
f 13/230/449 268/250/449 271/270/449
s 1
f 245/223/406 239/226/377 293/268/443
f 229/217/362 230/200/339 278/229/450
f 13/246/407 275/271/451 281/236/394
f 213/195/452 252/251/453 280/272/454
f 201/1/343 270/243/455 276/237/395
f 180/180/302 277/269/448 238/206/349
s 0
f 13/246/456 271/273/456 286/274/456
s 1
f 271/270/457 268/250/458 213/195/452
f 172/151/244 238/206/349 320/275/459
f 267/240/460 242/222/434 11/261/433
f 243/210/357 282/276/461 258/232/417
f 294/277/462 261/255/446 276/237/395
f 271/270/457 213/195/452 280/272/454
f 252/251/453 217/208/463 280/272/454
f 293/268/443 200/175/288 253/241/399
f 335/278/464 193/182/306 258/232/402
f 280/272/454 217/208/463 287/279/465
f 296/280/466 287/279/465 217/208/463
f 253/241/399 256/253/415 302/281/467
f 270/243/455 327/262/468 303/282/469
f 278/242/382 240/239/397 310/283/470
s 0
f 217/208/471 214/227/471 296/280/471
s 1
f 269/260/428 231/201/340 10/284/472
f 291/285/473 260/231/430 232/224/432
f 289/286/474 248/228/418 301/287/475
f 339/288/476 258/232/402 282/276/477
f 325/289/478 202/248/444 328/267/442
f 240/239/397 223/213/358 283/290/479
f 302/291/480 256/254/416 193/182/306
f 327/262/436 172/151/244 320/275/459
f 264/249/481 202/248/444 325/289/478
f 249/257/421 284/258/423 307/292/482
f 229/265/362 278/242/450 273/264/483
f 269/260/428 266/256/484 190/202/341
f 247/221/369 248/228/380 289/286/485
f 302/291/480 193/182/306 335/278/464
f 316/293/486 243/210/357 233/219/364
f 211/234/392 273/264/438 312/235/393
f 231/201/368 290/209/353 10/284/487
f 257/245/405 153/145/232 267/240/398
f 258/232/402 339/288/476 335/278/464
f 308/294/488 296/295/489 295/296/490
s 0
f 214/227/491 304/297/491 296/280/491
s 1
f 214/227/492 235/220/386 266/256/420
f 12/298/493 247/221/369 407/299/494
f 301/287/475 248/228/418 249/257/440
f 238/206/349 277/269/448 320/275/459
f 305/300/495 13/246/496 286/274/497
s 0
f 286/274/498 271/273/498 326/301/498
f 295/296/499 296/295/499 304/302/499
s 1
f 290/209/353 175/170/282 322/303/500
f 299/196/501 196/171/429 288/252/414
f 282/276/461 243/210/357 316/293/486
f 324/304/502 246/238/396 218/214/359
s 0
f 266/256/503 304/297/503 214/227/503
f 308/294/504 295/296/504 304/302/504
s 1
f 321/305/505 269/260/428 10/284/472
f 288/252/414 260/231/387 306/306/506
f 260/231/430 291/285/473 306/306/507
f 247/221/369 12/298/493 215/184/315
f 185/143/228 279/266/441 370/307/508
f 273/264/483 278/242/450 310/283/509
f 215/184/315 291/285/510 232/224/375
f 301/287/475 249/257/440 357/308/511
f 255/205/348 257/245/405 8/309/512
f 233/219/513 261/255/446 294/277/462
f 304/297/514 266/256/484 314/310/515
f 267/240/460 11/261/433 309/311/516
f 312/235/393 273/264/438 340/312/517
f 314/310/518 266/256/484 330/313/519
f 324/304/502 277/269/448 246/238/396
f 283/290/479 223/213/358 281/236/394
f 330/313/519 266/256/484 269/260/428
f 338/314/520 284/258/427 292/244/426
f 253/241/399 302/281/467 368/315/521
f 339/288/476 282/276/477 316/293/522
f 308/294/523 329/316/524 296/295/489
f 317/317/525 304/302/526 314/318/527
f 175/170/282 311/194/330 322/303/500
f 305/300/495 286/274/497 319/319/528
f 280/320/529 287/321/530 342/322/531
s 0
f 308/294/532 304/302/532 317/317/532
s 1
f 324/304/502 218/214/359 300/263/437
f 12/298/493 407/299/494 351/323/533
f 249/257/421 307/292/482 357/308/534
f 255/205/348 8/309/512 279/266/441
f 257/245/535 267/240/460 309/311/516
f 240/239/397 283/290/479 310/283/470
f 247/221/369 289/286/485 9/324/536
f 245/223/537 293/268/538 11/261/539
f 253/241/399 332/325/540 293/268/443
f 275/271/451 13/246/407 305/300/541
f 269/260/428 321/305/505 330/313/519
f 270/243/455 303/282/469 415/326/542
f 327/262/436 320/275/459 352/327/543
f 326/301/544 271/273/545 280/320/529
f 307/292/546 284/258/427 338/314/520
f 300/263/437 7/328/547 324/304/502
f 264/249/411 325/289/548 300/263/437
f 321/305/505 10/284/472 333/329/549
f 311/194/550 299/196/501 356/330/551
f 288/252/414 353/331/552 299/196/501
f 340/312/553 273/264/483 310/283/509
f 280/320/529 342/322/531 326/301/544
f 344/332/554 314/318/527 330/333/555
f 289/286/474 301/287/475 9/324/556
f 292/244/404 185/143/228 370/307/508
f 348/334/557 296/295/489 329/316/524
f 10/284/487 290/209/353 337/335/558
f 290/209/353 322/303/500 337/335/558
f 415/326/542 276/237/395 270/243/455
f 319/319/528 286/274/497 326/301/559
f 322/303/560 311/194/550 356/330/551
f 353/331/552 288/252/414 306/306/506
f 291/285/510 215/184/315 306/306/561
f 283/290/479 281/236/394 393/336/562
f 393/336/562 281/236/394 275/271/451
f 329/316/563 308/294/564 355/337/565
f 12/298/493 351/323/533 373/338/566
f 302/291/480 363/339/567 368/340/568
f 316/293/569 362/341/570 339/288/571
f 354/342/572 352/327/543 320/275/459
f 277/269/448 354/342/572 320/275/459
f 317/317/525 314/318/527 343/343/573
f 330/313/574 321/305/575 350/344/576
f 350/344/576 321/305/575 333/329/577
f 332/325/540 253/241/399 368/315/521
f 7/328/547 300/263/437 325/289/548
f 342/322/531 287/321/530 296/295/578
f 330/333/555 350/345/579 344/332/554
f 299/196/501 353/331/552 356/330/551
f 9/324/536 407/299/494 247/221/369
f 292/244/426 370/307/580 338/314/520
f 328/267/442 381/346/581 325/289/478
f 355/337/582 308/294/583 317/317/584
f 10/284/487 337/335/558 333/329/585
f 306/306/561 215/184/315 353/331/586
f 370/307/508 279/266/441 8/309/512
f 302/291/480 335/278/464 363/339/567
f 316/293/587 233/219/513 362/341/588
f 342/322/531 296/295/578 348/334/589
f 343/343/573 314/318/527 344/332/554
f 409/347/590 344/332/554 350/345/579
f 357/308/591 307/292/592 403/348/593
f 379/349/594 277/269/448 324/304/502
f 359/350/595 328/267/442 250/259/424
f 250/259/424 312/235/393 359/350/595
f 355/337/596 317/317/584 343/343/597
s 0
f 360/351/598 358/352/598 333/353/598
s 1
f 345/354/599 309/311/600 11/261/539
f 354/342/572 277/269/448 374/355/601
f 275/271/451 305/300/541 388/356/602
f 332/325/540 368/315/521 371/357/603
f 363/339/604 335/278/605 361/358/606
f 303/282/469 327/262/468 392/359/607
f 392/359/607 327/262/468 352/327/608
f 391/360/609 215/184/315 12/298/493
f 339/288/571 362/341/570 361/358/606
f 359/350/595 312/235/393 336/361/610
f 336/361/610 312/235/393 340/312/517
f 360/362/611 333/329/612 337/335/613
f 322/303/614 386/363/615 337/335/616
f 310/283/470 283/290/479 369/364/617
f 385/365/618 357/308/591 403/348/593
f 352/327/608 354/342/619 392/359/607
f 381/346/620 328/267/442 359/350/595
f 333/353/621 409/347/590 350/345/579
f 353/331/586 215/184/315 391/360/609
f 361/358/606 335/278/605 339/288/571
f 374/355/601 277/269/448 379/349/594
f 388/356/602 305/300/622 365/366/623
f 348/334/557 329/316/524 389/367/624
f 363/339/567 371/368/625 368/340/568
f 324/304/502 7/328/547 380/369/626
f 322/303/614 356/330/627 377/370/628
f 391/360/609 12/298/493 373/338/566
f 379/349/594 324/304/502 380/369/626
f 372/371/629 310/283/470 369/364/617
f 369/364/617 283/290/479 393/336/562
f 301/287/475 357/308/511 385/365/630
f 401/372/631 293/268/538 332/325/632
f 276/237/395 415/326/542 294/277/462
f 337/335/613 399/373/633 360/362/611
f 353/331/634 391/360/635 377/370/636
f 338/314/520 370/307/580 307/292/546
f 8/309/637 257/245/535 378/374/638
f 329/316/563 355/337/565 452/375/639
f 382/376/640 409/347/641 333/353/642
f 399/373/643 337/335/616 386/363/615
f 386/363/615 322/303/614 377/370/628
f 407/299/494 9/324/536 395/377/644
f 378/374/638 257/245/535 309/311/516
f 11/261/539 293/268/538 401/372/631
f 376/378/645 7/328/547 325/289/548
f 340/312/553 310/283/509 372/371/646
f 344/332/554 409/347/590 424/379/647
f 333/353/642 358/352/648 382/376/640
f 356/330/551 353/331/552 377/370/649
f 384/380/650 377/370/636 391/360/635
f 405/381/651 355/337/596 343/343/597
f 362/341/570 398/382/652 361/358/606
f 329/316/563 452/375/639 389/367/653
f 405/381/654 343/343/573 344/332/554
f 370/307/655 8/309/637 397/383/656
f 421/384/657 336/361/610 340/312/517
f 319/319/528 326/301/658 408/385/659
f 387/386/660 371/368/661 363/339/604
f 376/378/662 325/289/478 381/346/581
f 319/319/528 408/385/659 458/387/663
f 395/377/664 9/324/556 396/388/665
f 384/380/666 402/389/667 377/370/668
f 362/341/588 233/219/513 294/277/462
f 326/301/544 342/322/531 408/385/669
f 9/324/556 301/287/475 396/388/665
f 8/309/637 378/374/638 397/383/656
f 378/374/670 309/311/600 345/354/599
f 369/364/617 422/390/671 372/371/629
f 382/376/672 358/352/673 360/351/674
f 370/307/580 397/383/675 419/391/676
f 7/328/547 376/378/677 404/392/678
f 340/312/679 372/371/680 421/384/681
f 379/349/594 380/369/626 428/393/682
s 0
f 381/346/683 359/350/683 413/394/683
s 1
f 413/394/684 359/350/595 336/361/610
f 452/375/639 355/337/565 416/395/685
f 382/376/672 360/351/686 399/396/687
f 351/323/688 407/299/689 410/397/690
f 307/292/546 370/307/580 419/391/676
f 332/325/632 371/357/691 387/398/692
f 428/393/682 380/369/626 7/328/547
f 416/395/693 355/337/596 405/381/651
f 344/332/554 390/399/694 405/381/654
f 6/400/695 407/299/689 395/377/696
f 345/354/599 11/261/539 401/372/631
f 401/372/631 332/325/632 387/398/692
f 294/277/462 415/326/542 435/401/697
f 392/359/607 503/402/698 303/282/469
f 412/403/699 376/378/700 381/346/701
f 393/336/562 275/271/451 388/356/602
f 425/404/702 386/363/615 377/370/628
f 362/341/570 426/405/703 398/382/652
f 426/405/704 362/341/705 435/401/706
f 319/319/528 458/387/663 305/300/495
s 0
f 425/404/707 377/370/707 402/389/707
s 1
f 351/323/688 410/397/690 414/406/708
f 301/287/475 385/365/630 396/388/665
f 427/407/709 379/349/710 428/393/711
f 362/341/588 294/277/462 435/401/697
f 392/359/607 354/342/619 427/407/709
f 412/403/699 381/346/701 413/394/712
f 405/381/654 390/399/694 416/395/713
f 354/342/619 374/355/714 427/407/709
f 472/408/715 372/371/629 422/390/671
f 342/322/531 348/334/589 417/409/716
f 410/397/690 407/299/689 418/410/717
f 419/391/676 403/348/718 307/292/546
f 415/326/542 303/282/469 503/402/698
s 0
f 413/394/719 441/411/719 412/403/719
s 1
f 391/360/635 438/412/720 384/380/650
f 391/360/609 373/338/566 423/413/721
f 414/406/722 373/338/566 351/323/723
f 418/410/717 407/299/689 6/400/695
f 390/399/694 344/332/554 424/379/647
f 437/414/724 409/347/641 382/376/640
f 386/363/615 425/404/702 444/415/725
f 503/402/698 392/359/607 427/407/709
f 428/393/682 7/328/547 404/392/678
f 438/412/726 391/360/609 423/413/721
f 363/339/604 361/358/606 447/416/727
f 447/416/727 361/358/606 398/382/652
f 404/392/728 376/378/729 412/403/730
f 6/400/731 395/377/664 5/417/732
f 5/417/732 395/377/664 396/388/665
f 385/365/630 403/348/733 440/418/734
f 374/355/714 379/349/710 427/407/709
f 305/300/622 458/387/735 365/366/623
f 382/376/672 399/396/687 437/414/736
f 399/373/643 386/363/615 444/415/725
f 369/364/617 393/336/562 422/390/671
f 402/389/667 384/380/666 438/412/737
f 372/371/680 472/408/738 421/384/681
f 414/406/708 410/397/690 430/419/739
s 0
f 336/361/740 421/384/740 436/420/740
s 1
f 408/385/669 342/322/531 417/409/716
f 454/421/741 452/375/639 416/395/685
f 424/379/742 409/347/641 437/414/724
f 414/406/708 430/419/739 461/422/743
f 433/423/744 348/334/557 389/367/624
f 434/424/745 438/412/737 423/413/746
f 435/401/706 431/425/747 426/405/704
f 421/384/681 472/408/748 436/420/749
f 403/348/718 419/391/676 440/418/750
f 413/394/684 336/361/610 436/420/751
f 423/413/721 373/338/566 445/426/752
f 5/417/732 396/388/665 470/427/753
f 426/405/703 431/425/754 398/382/652
f 417/409/716 348/334/589 433/423/755
f 463/428/756 437/414/736 399/396/687
s 0
f 443/429/757 6/400/757 5/417/757
s 1
f 419/391/676 397/383/675 451/430/758
f 454/421/741 416/395/685 3/431/759
f 373/338/566 414/406/722 445/426/752
f 444/432/760 463/428/756 399/396/687
f 470/427/753 396/388/665 385/365/630
f 481/433/761 387/386/660 447/416/727
f 387/386/660 363/339/604 447/416/727
f 430/419/739 410/397/690 418/410/717
f 461/422/743 446/434/762 414/406/708
f 427/407/709 428/393/711 4/435/763
f 466/436/764 452/375/639 454/421/741
f 441/411/765 413/394/766 468/437/767
f 416/395/713 390/399/694 3/431/768
f 6/400/769 443/429/770 449/438/771
f 398/382/652 431/425/754 502/439/772
f 3/431/773 424/379/742 437/414/724
f 402/389/667 438/412/737 425/404/774
f 419/391/676 451/430/758 486/440/775
f 428/393/711 404/392/728 442/441/776
f 449/438/777 418/410/778 6/400/779
f 470/427/753 385/365/630 440/418/734
f 401/372/631 387/398/692 481/442/780
f 404/392/728 412/403/730 442/441/776
f 465/443/781 436/420/749 472/408/748
f 433/423/744 389/367/624 473/444/782
f 473/444/783 389/367/653 474/445/784
f 476/446/785 449/438/786 443/429/770
f 413/394/684 436/420/787 459/447/788
f 460/448/789 388/356/602 365/366/623
f 3/431/790 455/449/791 454/421/792
f 445/426/752 414/406/722 464/450/793
f 451/430/758 397/383/675 378/374/670
f 378/374/670 345/354/599 462/451/794
f 457/452/795 431/425/747 435/401/706
f 4/435/763 428/393/711 442/441/776
f 452/375/639 474/445/784 389/367/653
f 390/399/796 424/379/742 3/431/773
f 3/431/797 437/414/736 467/453/798
f 467/453/798 437/414/736 463/428/756
f 464/450/799 414/406/708 446/434/762
f 422/390/671 393/336/562 520/454/800
f 520/454/800 393/336/562 388/356/602
f 430/419/739 418/410/717 475/455/801
f 468/437/767 413/394/802 459/447/803
f 408/385/659 417/409/804 458/387/663
f 452/375/639 466/436/764 474/445/784
f 455/449/805 3/431/797 483/456/806
f 440/418/750 419/391/676 471/457/807
f 519/458/808 398/382/652 502/439/772
f 436/420/749 465/443/781 459/447/809
f 472/408/715 511/459/810 465/443/811
f 434/424/745 423/413/746 508/460/812
f 430/419/739 492/461/813 461/422/743
f 483/456/806 3/431/797 467/453/798
f 480/462/814 444/415/725 425/404/702
f 423/413/746 445/426/815 464/450/816
f 435/401/697 415/326/542 457/452/817
f 475/455/818 418/410/778 449/438/777
f 345/354/599 401/372/631 462/451/794
f 495/463/819 442/441/776 412/403/730
f 455/449/805 483/456/806 490/464/820
f 484/465/821 423/413/746 464/450/816
s 0
f 464/450/822 446/434/822 461/422/822
s 1
f 470/427/753 440/418/734 488/466/823
f 471/457/807 419/391/676 486/440/775
f 528/467/824 415/326/542 503/402/698
f 440/418/734 471/457/825 488/466/823
f 460/448/789 365/366/623 477/468/826
f 365/366/623 458/387/735 477/468/826
f 464/450/827 461/422/828 485/469/829
f 378/374/670 462/451/794 451/430/758
f 412/403/730 441/411/765 495/463/819
f 478/470/830 455/449/831 490/464/832
f 467/453/798 479/471/833 483/456/806
f 489/472/834 463/428/835 444/432/836
f 489/472/834 444/432/836 480/473/837
f 472/408/715 422/390/671 511/459/810
f 487/474/838 425/404/774 438/412/737
f 423/413/746 484/465/821 508/460/812
f 479/471/833 467/453/798 489/472/834
f 501/475/839 462/451/794 401/372/631
f 457/452/817 415/326/542 528/467/824
f 388/356/602 460/448/789 520/454/800
f 463/428/835 489/472/834 467/453/798
f 519/458/808 447/416/727 398/382/652
f 511/459/810 422/390/671 520/454/800
f 458/387/663 417/409/804 433/423/840
f 466/436/764 454/421/741 514/476/841
f 490/464/842 483/456/843 491/477/844
f 438/412/737 434/424/745 487/474/838
f 475/455/818 449/438/777 493/478/845
f 502/439/772 431/425/754 457/452/846
f 441/411/765 468/437/767 495/463/819
f 483/456/847 479/471/848 498/479/849
f 496/480/850 498/479/849 479/471/848
f 505/481/851 433/423/851 473/444/851
f 480/462/852 425/404/774 487/474/838
f 515/482/853 461/422/828 492/461/854
f 443/429/855 5/417/732 499/483/856
f 484/465/857 464/450/858 485/469/829
f 501/475/839 401/372/631 481/442/780
f 454/421/792 455/449/791 514/476/859
f 497/484/860 478/470/830 490/464/832
f 465/443/861 511/459/862 512/485/863
f 509/486/864 466/436/764 514/476/841
f 461/422/828 515/482/853 485/469/829
f 493/478/865 449/438/786 476/446/785
f 5/417/732 470/427/753 499/483/856
f 514/476/859 455/449/791 478/470/866
f 512/485/863 511/459/862 545/487/867
f 477/468/826 458/387/735 433/423/868
f 476/446/785 443/429/770 516/488/869
f 465/443/781 512/485/870 459/447/809
f 473/444/871 474/445/784 509/486/864
f 474/445/784 466/436/764 509/486/864
f 503/402/698 427/407/709 4/435/763
f 468/437/767 459/447/803 482/489/872
f 511/459/862 534/490/873 545/487/867
f 443/429/770 499/483/874 516/488/869
f 497/484/875 490/464/842 491/477/844
s 0
f 505/481/876 473/444/876 509/486/876
s 1
f 478/470/830 497/484/860 522/491/877
f 483/456/878 498/479/879 506/492/880
f 479/471/848 489/472/881 496/480/850
f 481/433/761 447/416/727 501/493/882
f 447/416/727 519/458/808 501/493/882
f 500/494/883 457/452/884 528/467/885
f 524/495/886 4/435/763 442/441/776
f 495/463/819 468/437/767 482/489/872
f 535/496/887 482/489/872 459/447/803
f 511/459/862 520/454/800 534/490/873
f 477/468/888 433/423/889 505/481/890
f 489/472/881 480/473/852 496/480/850
f 492/461/813 430/419/739 475/455/801
f 535/496/891 459/447/892 512/485/893
f 534/490/873 520/454/800 460/448/789
f 534/490/873 460/448/789 477/468/826
f 529/497/894 522/491/877 497/484/860
f 515/482/853 530/498/895 485/469/829
f 514/476/859 478/470/866 522/491/896
f 498/479/849 496/480/850 525/499/897
f 471/457/825 486/440/898 533/500/899
f 491/477/900 483/456/878 518/501/901
f 498/479/879 525/499/902 506/492/880
f 487/474/838 434/424/745 508/460/812
f 470/427/753 488/466/823 533/500/903
f 488/466/823 471/457/825 533/500/899
f 522/491/896 517/502/904 514/476/859
f 508/460/812 484/465/821 526/503/905
f 492/461/906 475/455/907 521/504/908
f 475/455/818 493/478/845 521/504/909
f 486/440/775 451/430/758 527/505/910
f 552/506/911 514/476/841 517/502/912
f 484/465/857 485/469/829 450/507/913
f 485/469/829 530/498/895 450/507/913
f 499/483/856 470/427/753 533/500/903
f 509/486/864 514/476/841 552/506/911
f 529/497/914 497/484/875 491/477/844
f 531/508/915 527/505/910 451/430/758
f 477/468/888 505/481/890 532/509/916
f 480/462/852 487/474/838 547/510/917
f 515/482/853 492/461/854 540/511/918
f 528/467/824 503/402/698 538/512/919
f 503/402/698 4/435/763 524/495/886
f 505/481/920 509/486/921 532/509/922
f 537/513/923 529/497/924 491/477/925
f 540/511/926 492/461/906 521/504/908
f 457/452/846 500/494/883 542/514/927
f 521/504/928 493/478/865 476/446/785
f 486/440/898 527/505/929 533/500/899
f 524/495/886 442/441/776 495/463/819
f 532/509/930 509/486/931 552/506/932
f 521/504/908 541/515/933 540/511/926
f 521/504/908 539/516/934 541/515/933
f 516/488/869 549/517/935 476/446/785
f 499/483/856 533/500/903 523/518/936
f 512/485/937 545/487/938 544/519/939
f 521/504/928 476/446/785 539/516/940
f 462/451/794 501/475/839 494/520/941
f 515/482/853 540/511/942 530/498/895
f 495/463/819 482/489/872 543/521/943
f 457/452/846 542/514/927 502/439/772
f 550/522/944 482/489/872 535/496/887
f 534/490/945 477/468/888 532/509/916
f 533/500/899 527/505/929 531/508/946
f 517/502/904 522/491/896 536/523/947
f 516/488/869 499/483/874 523/518/948
f 500/494/883 528/467/885 538/512/949
f 341/524/950 512/485/951 544/519/952
f 546/525/953 536/523/954 529/497/894
f 536/523/954 522/491/877 529/497/894
f 508/460/812 547/510/917 487/474/838
f 526/503/955 484/465/956 450/507/957
f 537/513/958 491/477/900 420/526/959
f 496/480/850 480/473/852 547/527/917
f 531/508/915 451/430/758 494/520/941
f 494/528/960 501/493/882 519/458/808
f 516/488/869 523/518/948 469/529/961
f 469/529/962 523/518/936 533/500/903
f 538/512/919 503/402/698 524/495/886
f 513/530/963 545/487/867 534/490/873
f 546/525/964 529/497/924 537/513/923
f 420/526/959 491/477/900 518/501/901
f 483/456/878 506/492/880 518/501/901
f 506/492/880 525/499/902 429/531/965
f 539/516/940 476/446/785 549/517/935
f 451/430/758 462/451/794 494/520/941
f 543/521/943 482/489/872 550/522/944
f 551/532/966 534/490/945 532/509/916
f 540/533/967 541/534/968 548/535/969
f 524/495/886 495/463/819 543/521/943
f 549/517/935 516/488/869 504/536/970
f 469/529/971 533/500/899 531/508/946
f 546/525/972 537/513/958 507/537/973
f 530/498/895 540/511/942 375/538/974
f 510/539/975 538/512/976 524/495/977
f 531/508/978 494/520/979 469/529/980
f 552/506/911 517/502/912 536/523/981
f 537/513/958 420/526/959 507/537/973
f 530/498/895 375/538/974 346/540/982
f 538/512/949 510/539/983 500/494/883
f 550/522/984 535/496/891 512/485/893
f 551/532/985 532/509/930 552/506/932
f 516/488/869 469/529/961 432/541/986
f 504/536/970 516/488/869 432/541/986
f 552/506/932 536/523/987 551/532/985
f 525/499/897 496/480/850 547/527/988
f 548/535/969 541/534/968 448/542/989
f 519/458/808 502/439/772 366/543/990
f 534/490/991 551/532/992 456/544/993
f 547/510/917 508/460/812 1/545/994
f 383/546/995 539/516/940 549/517/935
f 494/528/960 519/458/808 453/547/996
f 366/543/990 502/439/772 542/514/927
f 510/539/975 524/495/977 543/521/997
f 551/532/992 536/523/998 456/544/993
f 469/529/980 494/520/979 432/541/999
f 513/530/963 534/490/873 456/544/1000
f 448/542/989 541/534/968 539/548/1001
f 2/549/1002 543/521/1003 550/522/1004
f 525/499/902 547/527/1005 429/531/965
f 450/507/913 530/498/895 346/540/982
f 504/536/970 383/546/995 549/517/935
f 536/523/954 546/525/953 456/544/1006
f 1/545/994 508/460/812 526/503/905
f 341/524/1007 550/522/984 512/485/893
f 500/494/883 510/539/983 439/550/1008
f 411/551/1009 510/539/983 543/521/1010
f 453/547/996 519/458/808 366/543/990
f 543/521/1003 2/549/1002 411/551/1011
s 0
f 504/536/1012 432/541/1012 406/552/1012
s 1
f 432/553/1013 494/528/960 453/547/996
f 546/525/972 507/537/973 456/544/1014
f 375/554/1015 540/533/1016 548/535/1017
f 334/555/1018 526/503/955 450/507/957
f 500/494/883 439/550/1008 394/556/1019
f 406/557/1020 432/553/1021 453/547/1022
f 506/492/880 429/531/965 139/558/1023
f 542/514/927 500/494/883 394/556/1019
f 510/539/983 411/551/1009 323/559/1024
f 375/538/974 400/560/1025 346/540/982
f 406/557/1020 453/547/1022 367/561/1026
f 439/550/1008 510/539/983 323/559/1024
f 411/551/1027 2/549/1028 341/524/1007
f 2/549/1028 550/522/984 341/524/1007
s 0
f 456/544/1029 545/487/1029 513/530/1029
s 1
f 456/544/1014 507/537/973 349/562/1030
f 547/510/917 1/545/994 347/563/1031
f 539/548/1001 383/564/1032 364/565/1033
f 383/564/1034 504/566/1035 313/567/1036
f 341/524/950 544/519/952 236/568/1037
f 526/503/905 347/563/1031 1/545/994
f 504/566/1035 406/557/1020 367/561/1026
f 545/487/938 456/544/1038 349/562/1039
f 526/503/905 334/555/1040 347/563/1031
f 285/569/1041 318/570/1042 542/514/927
f 429/531/965 547/527/1005 254/571/1043
f 254/571/1043 547/527/1005 347/572/1044
f 334/555/1045 450/507/913 346/540/982
f 539/548/1001 364/565/1033 448/542/989
f 366/543/1046 542/514/927 318/570/1042
f 375/554/1015 548/535/1017 315/573/1047
f 400/574/1048 375/554/1015 315/573/1047
f 364/565/1033 383/564/1032 313/567/1049
f 297/575/1050 542/514/927 394/556/1019
f 548/535/1017 448/542/1051 315/573/1047
f 542/514/927 331/576/1052 285/569/1041
f 518/501/901 506/492/880 262/577/1053
f 297/575/1050 331/576/1052 542/514/927
f 411/551/1027 341/524/1007 323/559/1054
s 0
f 274/578/1055 367/561/1055 453/547/1055
s 1
f 453/547/1056 366/543/1057 274/578/1058
s 0
f 318/570/1059 285/569/1059 298/579/1059
s 1
f 297/575/1050 394/556/1019 272/580/1060
s 0
f 318/570/1061 298/579/1061 366/543/1061
s 1
f 313/567/1036 504/566/1035 259/581/1062
f 251/582/1063 341/524/950 236/568/1037
f 518/501/901 262/577/1053 420/526/959
f 347/572/1044 334/583/1064 254/571/1043
s 0
f 331/576/1065 298/579/1065 285/569/1065
s 1
f 544/519/939 545/487/938 212/584/1066
f 364/565/1033 313/567/1049 221/585/1067
f 263/586/1068 313/567/1036 259/581/1062
f 259/581/1062 504/566/1035 367/561/1026
f 147/587/1069 346/588/1070 400/574/1071
f 323/559/1054 341/524/1007 251/582/1072
s 0
f 297/575/1073 272/580/1073 265/589/1073
s 1
f 448/542/1051 364/565/1074 206/590/1075
f 366/543/1057 298/579/1076 274/578/1058
f 394/556/1019 439/550/1008 272/580/1060
s 0
f 331/576/1077 297/575/1077 265/589/1077
s 1
f 272/580/1078 439/550/1079 251/582/1072
f 429/531/965 254/571/1043 139/558/1023
f 259/581/1062 367/561/1026 274/578/1080
f 189/591/1081 506/492/880 139/558/1023
f 251/582/1072 439/550/1079 323/559/1054
f 506/492/880 189/591/1081 262/577/1053
f 254/571/1043 334/583/1064 222/592/1082
f 364/565/1074 221/585/1083 206/590/1075
f 313/567/1084 263/586/1085 221/585/1086
s 0
f 349/562/1087 507/537/1087 212/584/1087
s 1
f 236/568/1088 544/519/939 227/593/1089
f 212/584/1066 545/487/938 349/562/1039
f 507/537/973 420/526/959 224/594/1090
f 298/579/1076 331/576/1091 265/589/1092
f 334/583/1093 346/588/1070 147/587/1069
f 448/542/1051 206/590/1075 315/573/1047
f 224/594/1090 420/526/959 262/577/1053
f 146/595/1094 400/574/1071 183/596/1095
f 227/593/1089 544/519/939 212/584/1066
f 334/583/1093 147/587/1069 222/592/1096
f 400/574/1097 315/573/1047 183/596/1098
f 221/585/1086 263/586/1085 188/597/1099
f 265/589/1092 272/580/1078 251/582/1072
f 507/537/1100 224/594/1101 212/584/1066
f 186/598/1102 254/571/1043 222/592/1082
f 315/573/1047 206/590/1075 183/596/1098
f 274/578/1058 298/579/1076 162/599/1103
f 298/579/1076 265/589/1092 162/599/1103
f 251/582/1063 236/568/1037 137/600/1104
f 259/581/1062 274/578/1080 95/601/1105
f 139/558/1023 254/571/1043 186/598/1102
f 263/586/1068 259/581/1062 95/601/1105
f 147/587/1069 400/574/1071 146/595/1094
f 183/596/1106 206/590/1107 158/602/1108
f 95/601/1109 188/597/1099 263/586/1085
f 162/599/1103 265/589/1092 251/582/1072
f 227/593/1089 212/584/1066 91/603/1110
f 129/604/1111 206/590/1107 221/585/1086
f 224/594/1090 262/577/1053 90/605/1112
f 227/593/1089 112/606/1113 137/600/1114
f 137/600/1114 236/568/1088 227/593/1089
f 183/596/1106 158/602/1108 146/595/1115
f 137/600/1116 162/599/1103 251/582/1072
f 91/603/1110 212/584/1066 224/594/1101
f 274/578/1080 162/599/1117 95/601/1105
f 162/599/1103 137/600/1116 128/607/1118
f 91/603/1110 224/594/1101 90/605/1119
f 162/599/1117 128/607/1120 95/601/1105
f 262/577/1053 189/591/1081 68/608/1121
f 206/590/1107 129/604/1111 158/602/1108
f 262/577/1053 68/608/1121 90/605/1112
f 128/607/1118 137/600/1116 92/609/1122
f 137/600/1114 112/606/1113 92/609/1123
f 186/598/1102 222/592/1082 61/610/1124
f 129/604/1111 221/585/1086 188/597/1099
f 95/601/1105 128/607/1120 92/609/1125
f 147/587/1069 146/595/1094 71/611/1126
f 188/597/1099 95/601/1109 73/612/1127
f 95/601/1109 92/609/1128 73/612/1127
f 189/591/1081 139/558/1023 68/608/1121
f 146/595/1115 158/602/1108 71/611/1129
f 73/612/1130 92/609/1123 112/606/1113
f 222/592/1096 147/587/1069 61/610/1131
f 188/597/1099 73/612/1127 129/604/1111
f 158/602/1108 129/604/1111 71/611/1129
f 91/603/1110 90/605/1119 68/608/1132
f 147/587/1069 71/611/1126 61/610/1131
f 227/593/1089 73/612/1130 112/606/1113
f 68/608/1121 139/558/1023 186/598/1102
f 227/593/1133 129/604/1111 73/612/1127
f 21/613/1134 61/610/1131 71/611/1126
f 71/611/1129 129/604/1111 227/593/1133
f 186/598/1102 61/610/1124 21/613/1135
f 91/603/1110 68/608/1132 20/614/1136
f 71/611/1129 227/593/1133 21/613/1137
f 20/614/1138 186/598/1102 21/613/1135
f 68/608/1121 186/598/1102 20/614/1138
f 21/613/1139 227/593/1089 91/603/1110
f 20/614/1136 21/613/1140 91/603/1110
